<svg version="1.1" id="Layer_1" xmlns="http://www.w3.org/2000/svg" xmlns:xlink="http://www.w3.org/1999/xlink" x="0px" y="0px"
	 width="100%" viewBox="0 0 204 139" enable-background="new 0 0 204 139" xml:space="preserve">
<path fill="#F0EEEF" opacity="1.000000" stroke="none" 
	d="
M68.000000,140.000000 
	C56.979107,140.000000 45.958210,140.000000 34.392471,139.628754 
	C31.976572,138.505188 30.151184,137.597061 28.225079,137.032623 
	C24.048731,135.808762 19.759413,134.936203 15.662777,133.501663 
	C14.778531,133.192017 14.512523,131.116852 13.589396,129.001831 
	C17.884581,129.456894 21.486088,137.093613 24.350754,129.020599 
	C24.826641,129.300934 24.980238,129.571228 25.030113,130.278412 
	C25.805403,132.095123 26.589911,133.528656 27.374416,134.962204 
	C27.797440,134.716370 28.220463,134.470551 28.643486,134.224716 
	C28.094851,132.801178 27.546217,131.377640 27.440737,129.923340 
	C29.444084,129.892593 31.004274,129.892593 32.912285,129.892593 
	C32.912285,127.053078 32.912285,124.521881 32.979698,121.577469 
	C32.993408,119.774063 32.939701,118.383873 32.956345,116.560272 
	C32.977081,114.080917 32.927467,112.034958 32.946712,109.542648 
	C32.964085,106.388145 32.912601,103.679993 32.931412,100.528336 
	C33.085442,97.393021 33.169178,94.701225 33.382782,91.973602 
	C33.774376,91.842690 33.982986,91.681236 34.574810,91.494141 
	C35.300190,91.577301 35.589245,91.619736 35.857876,91.983490 
	C36.827164,93.061478 37.816868,93.818153 38.948242,94.841278 
	C41.057652,96.444969 43.025402,97.782219 45.132519,99.432144 
	C47.483265,102.310349 49.694645,104.875877 52.006775,107.736359 
	C53.355991,109.160095 54.604465,110.288887 55.962524,111.714813 
	C57.667362,113.398048 59.262615,114.784149 60.896324,116.147354 
	C60.934784,116.124443 60.915073,116.037117 60.979576,116.302719 
	C61.350304,116.739510 61.656525,116.910690 61.976830,117.048904 
	C61.990913,117.015938 61.921093,117.032257 61.991814,117.315170 
	C62.353790,117.854134 62.645046,118.110184 63.067268,118.614113 
	C63.770878,119.334030 64.343529,119.806068 64.993454,120.572876 
	C66.341286,121.951614 67.611832,123.035591 68.900803,124.108124 
	C68.919235,124.096672 68.930450,124.056694 69.037834,124.276550 
	C69.358322,124.756256 69.624336,124.939186 70.126144,125.340446 
	C73.209000,126.784866 76.108955,127.934021 79.201004,129.110840 
	C79.393097,129.138489 79.777534,129.084991 80.034866,129.313507 
	C81.180359,129.653351 82.068535,129.764679 83.399124,129.911713 
	C90.957115,130.789520 96.567162,127.760612 101.628639,123.148254 
	C101.019249,121.714943 100.453644,120.384621 100.249535,119.074501 
	C106.095291,121.440178 106.814659,122.843628 104.244698,125.804871 
	C103.186989,127.023613 102.499611,128.563751 101.643784,129.957703 
	C103.724831,131.105896 105.805878,132.254089 107.473389,133.174118 
	C108.371902,130.206314 108.939301,128.332199 109.506699,126.458076 
	C110.699265,127.768517 112.133240,128.932678 113.034393,130.419708 
	C114.938873,133.562408 119.962418,134.294724 123.294052,131.707092 
	C117.679520,130.310562 118.014565,130.181580 115.655434,124.053459 
	C114.562233,121.213745 113.626244,119.340813 117.263428,117.948380 
	C117.498627,117.979332 117.970566,118.028061 118.165817,118.307915 
	C120.613693,119.891289 122.866310,121.194817 125.330193,122.698792 
	C126.992752,123.504822 128.444061,124.110413 130.174210,124.803291 
	C130.639618,124.945930 130.826157,125.001289 131.180664,125.219284 
	C131.348663,125.381935 131.781219,125.559685 132.060089,125.779625 
	C135.540955,126.745369 138.742935,127.491173 142.226990,128.443909 
	C143.670944,128.743851 144.832855,128.836884 146.328552,128.971771 
	C147.110138,129.002884 147.557938,128.992096 148.446808,129.013885 
	C151.235733,128.997986 153.583572,128.949478 156.349258,128.936951 
	C158.161316,128.910004 159.555511,128.847092 161.336182,128.800827 
	C166.156982,127.236496 170.591324,125.655510 175.354980,124.061493 
	C176.120224,123.994987 176.556198,123.941521 177.306839,123.774109 
	C179.069321,122.753120 180.517136,121.846077 182.303680,120.960464 
	C183.094666,120.982254 183.546921,120.982620 184.139404,121.306000 
	C184.211182,122.830597 184.582382,124.343529 183.992813,125.176079 
	C182.134491,127.800255 179.811371,130.090012 177.863571,132.657455 
	C175.556320,135.698700 173.526306,138.930420 168.848938,138.159866 
	C168.347290,138.077225 167.621704,139.353882 167.000000,140.000000 
	C157.645767,140.000000 148.291550,140.000000 138.367065,139.609222 
	C136.792313,138.814255 135.788925,138.060638 134.783112,138.057373 
	C113.657707,137.988998 92.531868,137.974457 71.406876,138.090164 
	C70.267799,138.096420 69.135475,139.335052 68.000000,140.000000 
z"/>
<path fill="#EDEBEA" opacity="1.000000" stroke="none" 
	d="
M167.468658,140.000000 
	C167.621704,139.353882 168.347290,138.077225 168.848938,138.159866 
	C173.526306,138.930420 175.556320,135.698700 177.863571,132.657455 
	C179.811371,130.090012 182.134491,127.800255 183.992813,125.176079 
	C184.582382,124.343529 184.211182,122.830597 184.333282,121.046097 
	C185.260071,119.314262 186.133224,118.165337 187.154083,116.733788 
	C188.542511,115.307068 189.783279,114.162987 191.370636,112.973541 
	C193.443924,110.781708 195.170624,108.635239 196.897308,106.488785 
	C194.932770,104.994377 192.968216,103.499962 190.818756,101.763687 
	C189.754883,101.003319 188.875931,100.484802 188.001099,99.556274 
	C189.098221,98.098457 190.173325,96.188248 191.287582,96.165138 
	C194.579514,96.096832 195.062393,94.481674 195.034760,91.751610 
	C194.940842,82.470238 194.809753,73.181252 195.106430,63.908405 
	C195.205734,60.804211 196.631241,57.757233 197.266678,54.646542 
	C197.461594,53.692329 197.416733,52.263206 196.842514,51.654091 
	C194.745331,49.429401 192.802231,46.992981 188.852707,48.670433 
	C187.296860,49.331226 184.930359,48.083340 183.193161,47.502007 
	C185.306747,46.505856 187.160187,45.712311 189.306839,44.870125 
	C190.132568,44.261635 190.665085,43.701786 191.404816,43.094982 
	C191.612015,43.048027 192.011871,42.904255 192.312653,42.849701 
	C192.849884,42.252598 193.086334,41.710041 193.542297,41.039154 
	C193.944992,40.627956 194.128174,40.345093 194.582703,39.915539 
	C194.583725,38.406075 194.788910,36.517818 193.962311,35.769814 
	C189.997589,32.182224 185.753799,28.903044 181.388641,25.256994 
	C178.357803,23.377653 175.547455,21.755623 173.053650,20.066128 
	C174.631622,17.211546 176.139618,14.499328 177.021347,11.596870 
	C177.331818,10.574856 176.377609,8.860526 175.532318,7.856895 
	C173.502548,5.446890 171.195297,3.270591 169.000000,0.999998 
	C180.975311,1.000000 192.950607,1.000000 204.962952,1.000000 
	C204.962952,47.213272 204.962952,93.426582 204.962952,140.000000 
	C192.648102,140.000000 180.292709,140.000000 167.468658,140.000000 
z"/>
<path fill="#F0EEEF" opacity="1.000000" stroke="none" 
	d="
M168.531342,0.999998 
	C171.195297,3.270591 173.502548,5.446890 175.532318,7.856895 
	C176.377609,8.860526 177.331818,10.574856 177.021347,11.596870 
	C176.139618,14.499328 174.631622,17.211546 172.838882,20.058266 
	C172.307571,20.117868 171.966232,19.856113 171.764618,19.645962 
	C171.189819,19.337994 170.816650,19.240175 170.070496,19.187113 
	C167.465942,18.866646 165.234406,18.501419 162.582458,18.054857 
	C154.594162,16.963097 146.920212,14.840082 139.648010,19.940350 
	C137.897919,19.791832 136.448883,19.793739 134.936981,19.445328 
	C133.387939,18.631323 131.910049,18.138737 130.413300,17.712229 
	C128.969894,17.300913 127.463425,17.075537 126.063087,16.556767 
	C124.032722,15.804599 122.095238,14.185164 120.079079,14.118597 
	C111.618057,13.839240 103.141617,14.070657 94.672676,13.965592 
	C91.280983,13.923514 88.490883,14.436136 86.875870,17.952450 
	C86.441833,18.897451 84.818497,19.909882 83.793465,19.857948 
	C80.329369,19.682446 76.875725,19.122620 73.442360,18.561272 
	C68.620750,17.772951 63.820889,16.851646 58.930794,15.618404 
	C57.965733,14.581588 57.084885,13.340457 56.196964,13.335382 
	C48.413586,13.290900 40.627628,13.419027 32.846218,13.633481 
	C31.777170,13.662944 30.754810,14.532539 29.664762,14.859649 
	C28.133705,15.319102 26.559507,15.634795 24.677006,15.951974 
	C23.542765,12.457386 24.620405,11.196771 28.911001,11.035924 
	C32.749966,10.892010 36.598587,11.005646 40.442947,11.005646 
	C40.510159,10.296561 40.577370,9.587478 40.644581,8.878393 
	C37.534225,8.384162 34.423866,7.889931 31.089813,7.360155 
	C31.806755,4.973026 32.403378,2.986513 33.000000,1.000000 
	C78.020897,1.000000 123.041786,1.000000 168.531342,0.999998 
z"/>
<path fill="#EBEDEE" opacity="1.000000" stroke="none" 
	d="
M24.122974,128.956879 
	C21.486088,137.093613 17.884581,129.456894 13.589396,129.001831 
	C14.512523,131.116852 14.778531,133.192017 15.662777,133.501663 
	C19.759413,134.936203 24.048731,135.808762 28.225079,137.032623 
	C30.151184,137.597061 31.976572,138.505188 33.923813,139.628754 
	C23.035763,140.000000 12.071527,140.000000 1.000000,140.000000 
	C1.000000,106.312508 1.000000,72.624916 1.377501,38.375069 
	C2.457348,35.280003 3.159694,32.747181 3.987176,29.763096 
	C5.883492,30.977831 7.404146,31.951925 9.919797,33.563393 
	C8.937692,30.209438 8.266451,27.917112 7.551887,25.893692 
	C7.414180,26.007469 7.319798,25.852345 7.667524,26.031933 
	C8.422534,26.563511 8.735438,26.760372 9.361187,27.109730 
	C13.398103,35.670567 21.105515,38.861790 29.058254,42.252800 
	C29.959158,43.434696 30.569168,44.482109 31.464291,45.143883 
	C35.819473,48.363724 35.839203,48.314854 31.010813,51.162804 
	C28.300245,52.761585 28.603500,54.089462 31.020393,55.977200 
	C32.423008,57.072716 33.031311,59.185207 33.624908,60.918842 
	C32.497578,61.066547 31.742388,61.135468 30.533405,61.128326 
	C25.390587,61.100750 20.701561,61.149242 15.579644,61.117264 
	C13.096479,61.089031 11.046206,61.141262 8.735521,61.151581 
	C8.368591,61.404987 8.262072,61.700302 8.076224,62.392792 
	C8.048288,63.865318 8.099681,64.940674 8.067141,66.445099 
	C8.040335,68.908463 8.097461,70.942772 8.082806,73.309731 
	C8.061569,74.090508 8.112114,74.538635 8.079412,75.449661 
	C8.065941,83.650726 8.135714,91.388893 8.129629,99.505890 
	C8.091067,100.911209 8.128364,101.937691 8.072527,103.340088 
	C7.492229,108.986977 8.681703,113.802048 11.946261,118.407028 
	C14.306084,121.015785 16.602259,123.287682 19.116373,125.780907 
	C20.873726,126.727036 22.413139,127.451843 23.978050,128.375458 
	C24.003550,128.574249 24.122974,128.956879 24.122974,128.956879 
z"/>
<path fill="#ECEAEC" opacity="1.000000" stroke="none" 
	d="
M7.595212,25.624786 
	C8.266451,27.917112 8.937692,30.209438 9.919797,33.563393 
	C7.404146,31.951925 5.883492,30.977831 3.987176,29.763096 
	C3.159694,32.747181 2.457348,35.280003 1.377501,37.906410 
	C1.000000,25.787642 1.000000,13.575283 1.000000,1.000000 
	C4.335946,1.000000 7.685017,1.000000 11.563721,1.355889 
	C14.508899,4.275322 16.924442,6.838866 19.939327,10.038470 
	C17.251015,10.839869 16.028221,11.318313 14.760317,11.552428 
	C13.299986,11.822072 11.797140,11.853303 10.317403,12.027520 
	C5.542145,12.589738 4.447862,14.399740 5.928441,19.657545 
	C6.703305,18.702559 7.380884,17.867470 8.017298,17.399508 
	C8.069631,18.491713 8.163131,19.216795 8.237310,20.312737 
	C8.518321,22.134336 8.818652,23.585072 9.046064,25.351416 
	C8.998211,26.097094 9.023276,26.527164 9.048342,26.957235 
	C8.735438,26.760372 8.422534,26.563511 7.674967,26.006924 
	C7.240303,25.647202 7.450048,25.355923 7.450048,25.355923 
	C7.450048,25.355923 7.595212,25.624786 7.595212,25.624786 
z"/>
<path fill="#EBEDEE" opacity="1.000000" stroke="none" 
	d="
M8.058463,17.032383 
	C7.380884,17.867470 6.703305,18.702559 5.928441,19.657545 
	C4.447862,14.399740 5.542145,12.589738 10.317403,12.027520 
	C11.797140,11.853303 13.299986,11.822072 14.760317,11.552428 
	C16.028221,11.318313 17.251015,10.839869 19.939327,10.038470 
	C16.924442,6.838866 14.508899,4.275322 12.046677,1.355889 
	C13.388889,1.000000 14.777779,1.000000 16.635731,1.368137 
	C20.274416,5.121043 21.847887,4.953027 24.000000,1.000000 
	C26.700014,1.000000 29.400026,1.000000 32.550018,1.000000 
	C32.403378,2.986513 31.806755,4.973026 31.089813,7.360155 
	C34.423866,7.889931 37.534225,8.384162 40.644581,8.878393 
	C40.577370,9.587478 40.510159,10.296561 40.442947,11.005646 
	C36.598587,11.005646 32.749966,10.892010 28.911001,11.035924 
	C24.620405,11.196771 23.542765,12.457386 24.677988,16.150705 
	C25.005724,16.409435 25.009026,16.807194 24.715416,16.908684 
	C24.218380,17.047981 24.014954,17.085793 23.358065,17.085735 
	C17.955891,17.042706 13.007176,17.037544 8.058463,17.032383 
z"/>
<path fill="#E6E6E6" opacity="1.000000" stroke="none" 
	d="
M68.468658,140.000000 
	C69.135475,139.335052 70.267799,138.096420 71.406876,138.090164 
	C92.531868,137.974457 113.657707,137.988998 134.783112,138.057373 
	C135.788925,138.060638 136.792313,138.814255 137.898407,139.609222 
	C114.979103,140.000000 91.958214,140.000000 68.468658,140.000000 
z"/>
<path fill="#ECEAEC" opacity="1.000000" stroke="none" 
	d="
M23.562500,1.000000 
	C21.847887,4.953027 20.274416,5.121043 17.052395,1.368137 
	C19.041666,1.000000 21.083334,1.000000 23.562500,1.000000 
z"/>
<path fill="#F3F3F4" opacity="1.000000" stroke="none" 
	d="
M117.028236,117.917419 
	C113.626244,119.340813 114.562233,121.213745 115.655434,124.053459 
	C118.014565,130.181580 117.679520,130.310562 123.294052,131.707092 
	C119.962418,134.294724 114.938873,133.562408 113.034393,130.419708 
	C112.133240,128.932678 110.699265,127.768517 109.506699,126.458076 
	C108.939301,128.332199 108.371902,130.206314 107.473389,133.174118 
	C105.805878,132.254089 103.724831,131.105896 101.643784,129.957703 
	C102.499611,128.563751 103.186989,127.023613 104.244698,125.804871 
	C106.814659,122.843628 106.095291,121.440178 99.967049,118.922241 
	C97.646629,117.785477 95.970200,116.821175 94.079391,115.588638 
	C90.603638,112.495888 87.342270,109.671364 83.971672,106.634033 
	C83.668022,106.154625 83.415192,105.966492 83.051140,105.523636 
	C81.442703,103.409645 79.887108,101.628845 78.139328,99.590973 
	C77.256462,98.558189 76.565788,97.782471 75.742737,96.729660 
	C74.252007,95.268356 72.893661,94.084145 71.382393,92.576744 
	C69.508629,90.790421 67.787781,89.327286 66.032272,87.569351 
	C66.340775,86.207962 66.683937,85.141365 67.280563,84.018417 
	C67.794228,83.746628 68.054428,83.531197 68.662590,83.253876 
	C71.734917,81.450905 74.459267,79.709816 77.361710,77.855087 
	C77.758377,77.550743 77.908791,77.316292 78.115952,76.738533 
	C78.929207,75.920006 79.617554,75.401054 80.486610,75.210396 
	C81.569595,75.451645 83.001373,75.695885 83.294334,75.227623 
	C87.363625,68.723381 92.572861,62.730591 92.142242,54.214104 
	C92.054695,52.482643 93.367279,50.041256 94.804596,49.086040 
	C95.843597,48.395550 98.157318,49.623127 99.916473,50.322227 
	C99.830154,51.073418 99.729904,51.497681 99.373917,52.151199 
	C98.066742,56.907974 97.015289,61.435486 95.858490,66.252502 
	C95.754593,66.949821 95.756050,67.357643 95.549835,68.129532 
	C95.919205,74.322655 96.496231,80.151718 97.071541,86.359085 
	C98.077209,89.490967 99.084587,92.244553 100.103394,95.325089 
	C100.726852,96.776611 101.338890,97.901184 101.999435,99.371391 
	C104.285057,102.841331 106.522171,105.965630 108.883850,109.406876 
	C111.318092,111.885071 113.627769,114.046318 116.015335,116.454865 
	C116.404900,117.107246 116.716568,117.512337 117.028236,117.917419 
z"/>
<path fill="#F8CCB6" opacity="1.000000" stroke="none" 
	d="
M191.024033,113.018898 
	C189.783279,114.162987 188.542511,115.307068 186.809067,116.765984 
	C184.865891,118.366882 183.415421,119.652962 181.964935,120.939041 
	C180.517136,121.846077 179.069321,122.753120 177.308380,123.317566 
	C176.997879,116.896896 177.205322,110.807396 176.867218,104.748337 
	C176.776291,103.119049 175.026093,101.582352 174.026901,99.765091 
	C174.016235,99.527039 174.020248,99.050591 174.407288,98.979004 
	C179.195221,99.260368 183.596100,99.613327 187.996979,99.966286 
	C188.875931,100.484802 189.754883,101.003319 190.828751,102.160995 
	C191.023788,106.206413 191.023911,109.612656 191.024033,113.018898 
z"/>
<path fill="#E8A3BB" opacity="1.000000" stroke="none" 
	d="
M160.949722,128.784180 
	C159.555511,128.847092 158.161316,128.910004 156.134888,128.702896 
	C154.667023,128.288071 153.831375,128.143250 152.996719,127.573853 
	C153.133026,125.366776 152.607635,123.078316 153.518082,121.889435 
	C157.452896,116.751274 161.807861,111.934883 166.277420,107.258324 
	C167.885834,113.164955 171.673874,119.242180 163.629776,123.231720 
	C163.096313,123.496292 163.201187,125.047928 162.733429,126.138824 
	C161.955032,127.112541 161.452377,127.948357 160.949722,128.784180 
z"/>
<path fill="#633C54" opacity="1.000000" stroke="none" 
	d="
M38.806576,94.574837 
	C37.816868,93.818153 36.827164,93.061478 35.883896,91.550140 
	C36.282951,89.727608 36.395603,88.483414 37.028755,87.621635 
	C40.155312,83.366142 39.942623,79.195824 37.035858,74.648277 
	C37.016804,73.878960 37.008251,73.439026 37.001450,72.663315 
	C36.677288,71.548622 36.351372,70.769684 36.022774,69.578018 
	C35.669853,66.503822 35.319618,63.842354 35.398438,61.100994 
	C37.569897,61.072239 39.312302,61.123383 41.077255,61.363869 
	C41.099804,61.553215 41.151291,61.931602 40.902554,62.124130 
	C41.454319,62.871056 42.254822,63.425457 43.311672,64.107628 
	C44.047100,64.812164 44.526184,65.388924 45.006432,66.331970 
	C45.551514,68.217743 46.095436,69.737236 46.761585,71.598175 
	C45.892227,72.356789 44.922516,73.203133 43.952625,74.049263 
	C41.256271,76.401535 40.696091,82.721748 42.984177,85.408112 
	C42.976967,86.869904 42.966839,87.933121 42.558846,89.007751 
	C38.378304,89.262253 39.206680,92.289406 38.806576,94.574837 
z"/>
<path fill="#C3849D" opacity="1.000000" stroke="none" 
	d="
M71.535309,92.899933 
	C72.893661,94.084145 74.252007,95.268356 75.515350,96.716171 
	C75.420334,96.979774 74.963478,96.989243 74.616089,96.997406 
	C73.511368,97.669373 72.754028,98.333168 71.995438,99.397018 
	C71.993454,100.863663 71.992729,101.930267 71.621445,103.003586 
	C68.148788,104.231262 64.170456,104.650749 65.550499,109.776169 
	C65.700966,110.334984 64.549812,111.248924 63.994400,111.992172 
	C62.951965,113.387169 61.903706,114.777809 60.857868,116.170258 
	C59.262615,114.784149 57.667362,113.398048 56.109520,111.341202 
	C57.154266,104.475609 63.308273,102.226746 66.310844,97.516891 
	C67.511681,95.633240 69.762459,94.418930 71.535309,92.899933 
z"/>
<path fill="#F0CAB0" opacity="1.000000" stroke="none" 
	d="
M94.293762,115.856873 
	C95.970200,116.821175 97.646629,117.785477 99.605553,118.902039 
	C100.453644,120.384621 101.019249,121.714943 101.628639,123.148254 
	C96.567162,127.760612 90.957115,130.789520 83.406769,129.692932 
	C82.972000,129.438461 82.962440,128.998535 83.029739,128.605118 
	C83.400726,125.808174 83.704414,123.404640 84.370728,121.045135 
	C90.092781,123.314873 91.390602,118.119240 94.293762,115.856873 
z"/>
<path fill="#DE9DB6" opacity="1.000000" stroke="none" 
	d="
M166.009949,107.001419 
	C161.807861,111.934883 157.452896,116.751274 153.518082,121.889435 
	C152.607635,123.078316 153.133026,125.366776 152.612122,127.575378 
	C150.819611,128.328110 149.412659,128.654724 148.005722,128.981323 
	C147.557938,128.992096 147.110138,129.002884 146.330460,128.579712 
	C147.316833,125.458481 148.054123,122.182137 150.065887,120.197960 
	C155.400452,114.936516 155.943924,105.598831 164.573883,103.186455 
	C164.877487,103.101585 164.893188,101.986801 165.039124,101.258942 
	C165.035172,101.165840 165.000305,100.982773 165.335693,100.980377 
	C166.116226,100.929207 166.561386,100.880417 166.964355,101.221954 
	C166.618118,103.408653 166.314041,105.205032 166.009949,107.001419 
z"/>
<path fill="#E4A8B0" opacity="1.000000" stroke="none" 
	d="
M84.008110,121.001114 
	C83.704414,123.404640 83.400726,125.808174 82.634415,128.607422 
	C81.373703,129.030441 80.575623,129.057709 79.777534,129.084991 
	C79.777534,129.084991 79.393097,129.138489 79.197456,128.711700 
	C78.002739,125.857315 77.003670,123.429741 76.002815,120.574097 
	C75.669853,117.099815 75.338676,114.053612 75.357742,110.960045 
	C78.173317,109.227402 80.638649,107.542114 83.103973,105.856827 
	C83.415192,105.966492 83.668022,106.154625 83.947113,107.113251 
	C84.023888,112.203880 84.015999,116.602501 84.008110,121.001114 
z"/>
<path fill="#B47794" opacity="1.000000" stroke="none" 
	d="
M71.382393,92.576744 
	C69.762459,94.418930 67.511681,95.633240 66.310844,97.516891 
	C63.308273,102.226746 57.154266,104.475609 55.999935,111.044075 
	C54.604465,110.288887 53.355991,109.160095 52.008263,107.358154 
	C50.124870,102.390022 54.449524,101.686806 56.198193,99.520599 
	C59.395123,95.560326 62.767643,91.741798 66.066933,87.864151 
	C67.787781,89.327286 69.508629,90.790421 71.382393,92.576744 
z"/>
<path fill="#7C627A" opacity="1.000000" stroke="none" 
	d="
M125.118935,122.498337 
	C122.866310,121.194817 120.613693,119.891289 118.494705,118.233963 
	C119.752441,116.575424 120.876534,115.270691 122.322861,113.799881 
	C125.448708,108.055351 128.252304,102.476906 131.365936,97.020584 
	C133.449631,98.432060 135.223297,99.721428 136.830383,101.318695 
	C129.580154,106.794258 127.295609,114.616463 125.118935,122.498337 
z"/>
<path fill="#A76988" opacity="1.000000" stroke="none" 
	d="
M66.032272,87.569351 
	C62.767643,91.741798 59.395123,95.560326 56.198193,99.520599 
	C54.449524,101.686806 50.124870,102.390022 51.907516,107.063202 
	C49.694645,104.875877 47.483265,102.310349 45.077911,99.352623 
	C44.883934,98.960419 44.952232,98.779839 45.329666,98.854652 
	C46.472721,98.952148 47.238342,98.974831 48.381630,98.991928 
	C50.873360,97.186249 53.181675,95.566185 55.055916,93.543846 
	C57.860992,90.517105 60.360924,87.207558 63.407383,84.013962 
	C64.934982,83.862114 66.045837,83.714592 67.138367,83.697586 
	C67.120033,83.828102 67.027100,84.074768 67.027100,84.074768 
	C66.683937,85.141365 66.340775,86.207962 66.032272,87.569351 
z"/>
<path fill="#D498B1" opacity="1.000000" stroke="none" 
	d="
M165.043091,101.352043 
	C164.893188,101.986801 164.877487,103.101585 164.573883,103.186455 
	C155.943924,105.598831 155.400452,114.936516 150.065887,120.197960 
	C148.054123,122.182137 147.316833,125.458481 145.996658,128.537842 
	C144.832855,128.836884 143.670944,128.743851 142.246674,128.018005 
	C141.985077,126.262177 141.985825,125.139153 141.998199,123.646805 
	C142.932968,122.031128 143.893723,120.810646 144.772476,119.533730 
	C147.866684,115.037598 150.932739,110.522095 154.228699,105.870544 
	C154.614670,105.245186 154.781418,104.763245 155.277344,104.184021 
	C156.423935,103.757042 157.241333,103.427345 158.384338,103.092300 
	C159.141678,103.044243 159.573441,103.001541 160.258850,102.891792 
	C160.751526,102.573112 160.990555,102.321480 161.420685,102.079552 
	C161.611786,102.089256 161.990311,102.032814 162.307556,102.029160 
	C163.161575,101.718018 163.698364,101.410538 164.440369,101.154800 
	C164.645584,101.206543 165.043091,101.352043 165.043091,101.352043 
z"/>
<path fill="#42324A" opacity="1.000000" stroke="none" 
	d="
M37.046364,74.977654 
	C39.942623,79.195824 40.155312,83.366142 37.028755,87.621635 
	C36.395603,88.483414 36.282951,89.727608 35.904316,91.228836 
	C35.589245,91.619736 35.300190,91.577301 34.710636,91.211823 
	C33.945347,90.594940 33.480564,90.301102 32.696438,89.863190 
	C28.872789,88.315170 27.786255,85.534889 28.136274,81.699310 
	C31.201626,79.246132 34.123993,77.111893 37.046364,74.977654 
z"/>
<path fill="#95728C" opacity="1.000000" stroke="none" 
	d="
M125.330193,122.698792 
	C127.295609,114.616463 129.580154,106.794258 137.109985,101.319717 
	C137.926590,101.053596 138.296997,101.094360 138.859558,101.406357 
	C140.028793,102.156677 141.005844,102.635765 141.986267,103.335922 
	C141.989639,103.556984 141.998154,103.999504 141.667923,104.004822 
	C140.897369,104.015358 140.457047,104.020576 139.666687,104.055237 
	C132.185135,108.679962 129.649567,114.527718 131.808792,121.243828 
	C131.074570,122.313087 130.517899,123.128944 129.936279,124.136871 
	C129.911346,124.328949 129.895355,124.716003 129.895355,124.716003 
	C128.444061,124.110413 126.992752,123.504822 125.330193,122.698792 
z"/>
<path fill="#F2B8BC" opacity="1.000000" stroke="none" 
	d="
M174.037567,100.003151 
	C175.026093,101.582352 176.776291,103.119049 176.867218,104.748337 
	C177.205322,110.807396 176.997879,116.896896 176.993713,123.431511 
	C176.556198,123.941521 176.120224,123.994987 175.183411,123.810165 
	C174.122025,123.382767 173.561493,123.193649 172.852066,122.666260 
	C170.868134,116.407745 170.830353,110.681747 173.866440,105.008881 
	C174.573318,103.688095 174.014175,101.689743 174.037567,100.003151 
z"/>
<path fill="#D08CA4" opacity="1.000000" stroke="none" 
	d="
M60.896324,116.147354 
	C61.903706,114.777809 62.951965,113.387169 63.994400,111.992172 
	C64.549812,111.248924 65.700966,110.334984 65.550499,109.776169 
	C64.170456,104.650749 68.148788,104.231262 71.837540,103.118698 
	C72.692688,103.429291 72.885948,103.687737 73.003448,104.402809 
	C73.007195,105.871338 73.011475,106.939507 73.014359,108.338165 
	C73.013840,109.109207 73.014702,109.549751 72.862030,110.288307 
	C70.111046,113.816917 67.513611,117.047516 64.916168,120.278107 
	C64.343529,119.806068 63.770878,119.334030 62.989807,118.327217 
	C62.494621,117.539047 62.207855,117.285652 61.921093,117.032257 
	C61.921093,117.032257 61.990913,117.015938 61.867538,116.816330 
	C61.467796,116.423515 61.191433,116.230316 60.915073,116.037117 
	C60.915073,116.037117 60.934784,116.124443 60.896324,116.147354 
z"/>
<path fill="#D896AD" opacity="1.000000" stroke="none" 
	d="
M64.993454,120.572876 
	C67.513611,117.047516 70.111046,113.816917 73.156036,110.316864 
	C74.071556,110.367409 74.539528,110.687401 75.007500,111.007401 
	C75.338676,114.053612 75.669853,117.099815 75.620857,120.623177 
	C73.121246,122.106743 71.001808,123.113152 68.882378,124.119568 
	C67.611832,123.035591 66.341286,121.951614 64.993454,120.572876 
z"/>
<path fill="#453F56" opacity="1.000000" stroke="none" 
	d="
M27.993290,82.018234 
	C27.786255,85.534889 28.872789,88.315170 32.698273,90.201920 
	C33.097267,91.126305 33.175091,91.567871 33.252914,92.009430 
	C33.169178,94.701225 33.085442,97.393021 32.598701,100.609726 
	C31.128845,102.413780 30.061991,103.692940 28.867128,104.673050 
	C28.821802,102.239784 28.904488,100.105576 28.990578,97.543732 
	C27.672178,92.083679 26.350372,87.051254 25.398655,82.015015 
	C26.510258,82.013550 27.251774,82.015892 27.993290,82.018234 
z"/>
<path fill="#DFA2B6" opacity="1.000000" stroke="none" 
	d="
M68.900803,124.108124 
	C71.001808,123.113152 73.121246,122.106743 75.622635,121.051239 
	C77.003670,123.429741 78.002739,125.857315 79.005371,128.684036 
	C76.108955,127.934021 73.209000,126.784866 70.277435,125.182465 
	C69.807365,124.505043 69.368912,124.280869 68.930450,124.056694 
	C68.930450,124.056694 68.919235,124.096672 68.900803,124.108124 
z"/>
<path fill="#7B7687" opacity="1.000000" stroke="none" 
	d="
M24.350754,129.020599 
	C24.122974,128.956879 24.003550,128.574249 23.990955,128.012238 
	C23.985231,126.965889 23.992100,126.481575 24.366936,125.994217 
	C27.460695,124.657684 30.186489,123.324188 32.912285,121.990685 
	C32.912285,124.521881 32.912285,127.053078 32.912285,129.892593 
	C31.004274,129.892593 29.444084,129.892593 27.115717,129.878067 
	C25.911470,129.874115 25.475399,129.884689 25.039328,129.895264 
	C24.980238,129.571228 24.826641,129.300934 24.350754,129.020599 
z"/>
<path fill="#6B6278" opacity="1.000000" stroke="none" 
	d="
M32.877857,109.989006 
	C32.927467,112.034958 32.977081,114.080917 32.618725,116.607689 
	C29.472727,118.724014 26.734695,120.359520 24.038418,121.640404 
	C25.388908,118.526192 26.697645,115.766609 28.296492,112.859917 
	C30.017021,111.804878 31.447439,110.896942 32.877857,109.989006 
z"/>
<path fill="#544860" opacity="1.000000" stroke="none" 
	d="
M122.000626,113.965958 
	C120.876534,115.270691 119.752441,116.575424 118.299454,117.954109 
	C117.970566,118.028061 117.498627,117.979332 117.263428,117.948380 
	C116.716568,117.512337 116.404900,117.107246 115.999046,116.097336 
	C116.603539,112.995781 117.302216,110.499062 118.291702,107.856003 
	C119.713799,107.132431 120.845078,106.555191 121.939850,106.348297 
	C121.935768,109.134422 121.968201,111.550194 122.000626,113.965958 
z"/>
<path fill="#6C4D65" opacity="1.000000" stroke="none" 
	d="
M38.948242,94.841278 
	C39.206680,92.289406 38.378304,89.262253 42.814552,89.016006 
	C43.638325,89.014687 43.808529,89.016518 43.982964,89.433426 
	C44.322937,91.895569 44.658684,93.942635 44.996544,96.340286 
	C44.983177,97.387192 44.967705,98.083519 44.952232,98.779839 
	C44.952232,98.779839 44.883934,98.960419 44.938545,99.039948 
	C43.025402,97.782219 41.057652,96.444969 38.948242,94.841278 
z"/>
<path fill="#605168" opacity="1.000000" stroke="none" 
	d="
M32.946712,109.542648 
	C31.447439,110.896942 30.017021,111.804878 27.960520,112.856735 
	C26.886513,112.997643 26.438589,112.994629 25.998392,112.621124 
	C27.002459,109.824448 27.998796,107.398270 28.995136,104.972092 
	C30.061991,103.692940 31.128845,102.413780 32.528408,101.053238 
	C32.912601,103.679993 32.964085,106.388145 32.946712,109.542648 
z"/>
<path fill="#B295AA" opacity="1.000000" stroke="none" 
	d="
M141.986572,124.016129 
	C141.985825,125.139153 141.985077,126.262177 141.964630,127.811096 
	C138.742935,127.491173 135.540955,126.745369 132.261200,125.418777 
	C134.450668,124.222763 136.717865,123.607536 139.201202,123.245178 
	C140.273743,123.670746 141.130157,123.843437 141.986572,124.016129 
z"/>
<path fill="#726880" opacity="1.000000" stroke="none" 
	d="
M23.996666,121.995026 
	C26.734695,120.359520 29.472727,118.724014 32.548378,117.041092 
	C32.939701,118.383873 32.993408,119.774063 32.979698,121.577469 
	C30.186489,123.324188 27.460695,124.657684 24.384922,125.717834 
	C24.014446,124.628204 23.993948,123.811928 23.978901,122.745514 
	C23.988457,122.328583 23.992561,122.161804 23.996666,121.995026 
z"/>
<path fill="#E5B6C6" opacity="1.000000" stroke="none" 
	d="
M173.000946,123.004532 
	C173.561493,123.193649 174.122025,123.382767 174.854126,123.823204 
	C170.591324,125.655510 166.156982,127.236496 161.336182,128.800842 
	C161.452377,127.948357 161.955032,127.112541 163.117432,126.088272 
	C166.851761,124.934715 169.926361,123.969620 173.000946,123.004532 
z"/>
<path fill="#B184A3" opacity="1.000000" stroke="none" 
	d="
M138.985077,122.992310 
	C136.717865,123.607536 134.450668,124.222763 131.982330,125.198837 
	C131.781219,125.559685 131.348663,125.381935 131.071991,124.977623 
	C130.517303,124.363808 130.239273,124.154305 129.961227,123.944794 
	C130.517899,123.128944 131.074570,122.313087 132.144714,121.192963 
	C133.435471,119.594536 134.212769,118.300369 135.242096,117.005569 
	C135.662170,117.004852 135.830200,117.004776 136.133713,117.305794 
	C137.178391,119.068161 138.087585,120.529442 138.995636,122.241135 
	C138.991348,122.658478 138.988205,122.825394 138.985077,122.992310 
z"/>
<path fill="#EBEDEE" opacity="1.000000" stroke="none" 
	d="
M25.030113,130.278412 
	C25.475399,129.884689 25.911470,129.874115 26.672562,129.908813 
	C27.546217,131.377640 28.094851,132.801178 28.643486,134.224716 
	C28.220463,134.470551 27.797440,134.716370 27.374416,134.962204 
	C26.589911,133.528656 25.805403,132.095123 25.030113,130.278412 
z"/>
<path fill="#F7E6CB" opacity="1.000000" stroke="none" 
	d="
M182.303680,120.960464 
	C183.415421,119.652962 184.865891,118.366882 186.661377,117.048615 
	C186.133224,118.165337 185.260071,119.314262 184.193039,120.723083 
	C183.546921,120.982620 183.094666,120.982254 182.303680,120.960464 
z"/>
<path fill="#D498B1" opacity="1.000000" stroke="none" 
	d="
M148.446808,129.013901 
	C149.412659,128.654724 150.819611,128.328110 152.611145,127.999969 
	C153.831375,128.143250 154.667023,128.288071 155.717041,128.666931 
	C153.583572,128.949478 151.235733,128.997986 148.446808,129.013901 
z"/>
<path fill="#DFA2B6" opacity="1.000000" stroke="none" 
	d="
M80.034866,129.313507 
	C80.575623,129.057709 81.373703,129.030441 82.567116,129.000854 
	C82.962440,128.998535 82.972000,129.438461 82.964355,129.657227 
	C82.068535,129.764679 81.180359,129.653351 80.034866,129.313507 
z"/>
<path fill="#DCD5DE" opacity="1.000000" stroke="none" 
	d="
M33.382782,91.973602 
	C33.175091,91.567871 33.097267,91.126305 33.017609,90.346008 
	C33.480564,90.301102 33.945347,90.594940 34.274307,91.171089 
	C33.982986,91.681236 33.774376,91.842690 33.382782,91.973602 
z"/>
<path fill="#D896AD" opacity="1.000000" stroke="none" 
	d="
M69.037834,124.276550 
	C69.368912,124.280869 69.807365,124.505043 70.094536,124.887207 
	C69.624336,124.939186 69.358322,124.756256 69.037834,124.276550 
z"/>
<path fill="#C3849D" opacity="1.000000" stroke="none" 
	d="
M61.991814,117.315170 
	C62.207855,117.285652 62.494621,117.539047 62.858845,118.079338 
	C62.645046,118.110184 62.353790,117.854134 61.991814,117.315170 
z"/>
<path fill="#C3849D" opacity="1.000000" stroke="none" 
	d="
M60.979576,116.302719 
	C61.191433,116.230316 61.467796,116.423515 61.853455,116.849297 
	C61.656525,116.910690 61.350304,116.739510 60.979576,116.302719 
z"/>
<path fill="#B295AA" opacity="1.000000" stroke="none" 
	d="
M129.936279,124.136871 
	C130.239273,124.154305 130.517303,124.363808 130.904007,124.814972 
	C130.826157,125.001289 130.639618,124.945930 130.174210,124.803291 
	C129.895355,124.716003 129.911346,124.328949 129.936279,124.136871 
z"/>
<path fill="#F0EFEF" opacity="1.000000" stroke="none" 
	d="
M165.039124,101.258942 
	C165.043091,101.352043 164.645584,101.206543 164.111298,101.142960 
	C163.048111,101.397186 162.519211,101.715004 161.990311,102.032822 
	C161.990311,102.032814 161.611786,102.089256 161.164215,102.148956 
	C160.479507,102.458717 160.242355,102.708786 160.005188,102.958847 
	C159.573441,103.001541 159.141678,103.044243 158.171280,102.838242 
	C155.422974,102.393059 153.213318,102.196571 151.047760,101.647827 
	C156.544067,97.520180 156.140091,91.893326 156.039169,86.237038 
	C155.888351,77.784401 156.091339,69.325600 155.953339,60.872520 
	C155.901062,57.669975 156.406357,55.405636 160.170364,54.861549 
	C161.231918,54.708103 162.096176,53.189861 163.732574,51.660561 
	C159.743042,51.062298 157.089920,50.664444 154.227722,50.235233 
	C154.927002,48.341286 155.389160,47.089531 156.012344,45.401672 
	C151.614624,47.536160 151.157303,44.271961 150.427063,41.951576 
	C152.915054,41.841389 154.974426,41.842651 157.415039,41.986816 
	C162.521896,43.765541 167.247528,45.401363 172.271912,47.231613 
	C173.733063,47.697010 174.895447,47.967979 176.265274,48.437706 
	C177.320450,48.464966 178.168198,48.293461 178.963760,48.016693 
	C178.911591,47.911427 178.948151,47.679321 179.342102,47.748009 
	C180.801697,47.779335 181.867355,47.741974 182.933014,47.704609 
	C184.930359,48.083340 187.296860,49.331226 188.852707,48.670433 
	C192.802231,46.992981 194.745331,49.429401 196.842514,51.654091 
	C197.416733,52.263206 197.461594,53.692329 197.266678,54.646542 
	C196.631241,57.757233 195.205734,60.804211 195.106430,63.908405 
	C194.809753,73.181252 194.940842,82.470238 195.034760,91.751610 
	C195.062393,94.481674 194.579514,96.096832 191.287582,96.165138 
	C190.173325,96.188248 189.098221,98.098457 188.001099,99.556274 
	C183.596100,99.613327 179.195221,99.260368 174.065460,98.934090 
	C172.883453,98.888687 172.430313,98.816605 171.906113,98.446960 
	C168.793472,97.252556 166.377670,97.865211 165.000305,100.982773 
	C165.000305,100.982773 165.035172,101.165840 165.039124,101.258942 
z"/>
<path fill="#F67B50" opacity="1.000000" stroke="none" 
	d="
M183.193161,47.502007 
	C181.867355,47.741974 180.801697,47.779335 179.344574,47.334209 
	C179.708374,40.873478 180.463638,34.895237 181.538239,28.993076 
	C183.364883,30.339689 184.900375,31.578491 186.373306,32.887688 
	C189.039001,35.257057 191.667389,37.668411 194.311356,40.062233 
	C194.128174,40.345093 193.944992,40.627956 193.254730,41.124527 
	C192.502380,41.860241 192.257126,42.382248 192.011871,42.904251 
	C192.011871,42.904255 191.612015,43.048027 191.078384,43.096359 
	C190.034378,43.736050 189.524002,44.327404 189.013626,44.918762 
	C187.160187,45.712311 185.306747,46.505856 183.193161,47.502007 
z"/>
<path fill="#DA3A42" opacity="1.000000" stroke="none" 
	d="
M181.218903,28.916994 
	C180.463638,34.895237 179.708374,40.873478 178.950623,47.265518 
	C178.948151,47.679321 178.911591,47.911427 178.594238,47.961693 
	C177.537201,48.087620 176.797516,48.163284 176.057831,48.238949 
	C174.895447,47.967979 173.733063,47.697010 172.391037,47.006096 
	C172.480377,46.384575 172.749344,46.182995 173.403320,45.977760 
	C178.438950,43.845795 181.086197,28.096596 177.325027,24.932791 
	C177.198410,24.826290 177.087189,24.671556 176.940918,24.622681 
	C172.306839,23.074018 167.669296,21.535702 163.026062,19.685890 
	C163.014191,18.962711 163.008530,18.549452 163.002853,18.136192 
	C165.234406,18.501419 167.465942,18.866646 170.256989,19.424850 
	C171.199722,19.697260 171.582977,19.776688 171.966232,19.856113 
	C171.966232,19.856113 172.307571,20.117868 172.522339,20.125731 
	C175.547455,21.755623 178.357803,23.377653 181.221298,25.662460 
	C181.255936,27.189156 181.237411,28.053076 181.218903,28.916994 
z"/>
<path fill="#E8816F" opacity="1.000000" stroke="none" 
	d="
M181.538239,28.993076 
	C181.237411,28.053076 181.255936,27.189156 181.441788,25.919771 
	C185.753799,28.903044 189.997589,32.182224 193.962311,35.769814 
	C194.788910,36.517818 194.583725,38.406075 194.582703,39.915543 
	C191.667389,37.668411 189.039001,35.257057 186.373306,32.887688 
	C184.900375,31.578491 183.364883,30.339689 181.538239,28.993076 
z"/>
<path fill="#F7E6CB" opacity="1.000000" stroke="none" 
	d="
M191.370636,112.973541 
	C191.023911,109.612656 191.023788,106.206413 191.013672,102.402863 
	C192.968216,103.499962 194.932770,104.994377 196.897308,106.488785 
	C195.170624,108.635239 193.443924,110.781708 191.370636,112.973541 
z"/>
<path fill="#E8816F" opacity="1.000000" stroke="none" 
	d="
M189.306839,44.870125 
	C189.524002,44.327404 190.034378,43.736050 190.871185,43.143318 
	C190.665085,43.701786 190.132568,44.261635 189.306839,44.870125 
z"/>
<path fill="#E8816F" opacity="1.000000" stroke="none" 
	d="
M192.312653,42.849701 
	C192.257126,42.382248 192.502380,41.860241 193.035217,41.252861 
	C193.086334,41.710041 192.849884,42.252598 192.312653,42.849701 
z"/>
<path fill="#F3F0F0" opacity="1.000000" stroke="none" 
	d="
M99.902542,49.995293 
	C98.157318,49.623127 95.843597,48.395550 94.804596,49.086040 
	C93.367279,50.041256 92.054695,52.482643 92.142242,54.214104 
	C92.572861,62.730591 87.363625,68.723381 83.294334,75.227623 
	C83.001373,75.695885 81.569595,75.451645 80.541885,74.965927 
	C80.677986,73.970795 80.939514,73.548409 81.454300,72.994743 
	C82.114616,72.466515 82.521667,72.069572 83.189972,71.487434 
	C90.118568,61.741272 92.008980,51.571606 87.364395,40.202316 
	C84.619034,30.844765 78.801361,24.602089 70.285652,20.743904 
	C70.262360,20.738600 70.215034,20.732922 70.103516,20.516405 
	C69.725746,20.058468 69.421501,19.992636 68.802818,19.920717 
	C66.351456,19.497927 64.176544,19.256809 61.818962,18.899677 
	C61.636295,18.783667 61.203732,18.769827 61.163933,18.442762 
	C60.414299,17.682159 59.704472,17.248619 58.994720,16.615025 
	C58.994801,16.414970 58.985146,16.014978 58.991493,16.008533 
	C58.997845,16.002090 59.011723,15.987222 59.011723,15.987221 
	C63.820889,16.851646 68.620750,17.772951 73.442360,18.561272 
	C76.875725,19.122620 80.329369,19.682446 83.793465,19.857948 
	C84.818497,19.909882 86.441833,18.897451 86.875870,17.952450 
	C88.490883,14.436136 91.280983,13.923514 94.672676,13.965592 
	C103.141617,14.070657 111.618057,13.839240 120.079079,14.118597 
	C122.095238,14.185164 124.032722,15.804599 126.063087,16.556767 
	C127.463425,17.075537 128.969894,17.300913 130.413300,17.712229 
	C131.910049,18.138737 133.387939,18.631323 134.532043,19.536652 
	C130.880402,21.112194 127.570831,22.246094 123.914368,23.316864 
	C120.761902,25.679686 117.956322,28.105631 114.819580,30.602814 
	C113.598831,31.588936 112.709244,32.503822 111.512024,33.587105 
	C107.437103,39.168766 103.669823,44.582031 99.902542,49.995293 
M120.274574,21.493448 
	C120.383331,20.942053 120.492081,20.390657 120.600830,19.839262 
	C120.206184,19.833555 119.811546,19.827850 119.416901,19.822145 
	C119.510719,20.376461 119.604538,20.930779 120.274574,21.493448 
M127.513885,19.430649 
	C127.513885,19.430649 127.563644,19.520895 127.513885,19.430649 
z"/>
<path fill="#DD0C50" opacity="1.000000" stroke="none" 
	d="
M162.582458,18.054859 
	C163.008530,18.549452 163.014191,18.962711 162.746521,19.896820 
	C161.596375,22.175282 160.791412,23.973337 159.829239,25.682901 
	C156.972595,30.758545 157.625992,31.902252 163.527451,31.983814 
	C170.389679,32.078655 172.382004,33.725204 173.228180,40.401897 
	C173.459045,42.223610 173.104309,44.119545 173.018311,45.981415 
	C172.749344,46.182995 172.480377,46.384575 172.092285,46.811668 
	C167.247528,45.401363 162.521896,43.765541 157.418732,41.552383 
	C156.908340,31.728197 153.440567,27.083502 144.885864,24.696125 
	C144.187119,24.312284 143.658646,24.154654 142.967209,23.725603 
	C141.852524,22.333048 140.900803,21.211910 139.949081,20.090775 
	C146.920212,14.840082 154.594162,16.963097 162.582458,18.054859 
z"/>
<path fill="#891D6C" opacity="1.000000" stroke="none" 
	d="
M139.648010,19.940350 
	C140.900803,21.211910 141.852524,22.333048 142.909378,23.974022 
	C142.994766,24.662411 142.975021,24.830963 142.612579,25.041153 
	C135.284927,30.749432 126.293182,34.164059 122.078186,42.602600 
	C121.998192,41.347160 121.986122,40.504459 121.916214,39.244102 
	C122.659325,33.677628 123.460289,28.528811 124.261253,23.379993 
	C127.570831,22.246094 130.880402,21.112194 134.594925,19.886971 
	C136.448883,19.793739 137.897919,19.791832 139.648010,19.940350 
z"/>
<path fill="#F3F0F0" opacity="1.000000" stroke="none" 
	d="
M25.009026,16.807194 
	C25.009026,16.807194 25.005724,16.409435 25.004742,16.210705 
	C26.559507,15.634795 28.133705,15.319102 29.664762,14.859649 
	C30.754810,14.532539 31.777170,13.662944 32.846218,13.633481 
	C40.627628,13.419027 48.413586,13.290900 56.196964,13.335382 
	C57.084885,13.340457 57.965733,14.581588 58.930794,15.618404 
	C59.011723,15.987222 58.997845,16.002090 58.524536,16.003319 
	C51.087933,16.002954 44.122524,15.911493 37.163124,16.075251 
	C35.763401,16.108185 34.386486,17.110268 32.614338,17.589901 
	C29.822756,17.278591 27.415892,17.042892 25.009026,16.807194 
z"/>
<path fill="#EDEBEA" opacity="1.000000" stroke="none" 
	d="
M171.764618,19.645962 
	C171.582977,19.776688 171.199722,19.697260 170.629974,19.380093 
	C170.816650,19.240175 171.189819,19.337994 171.764618,19.645962 
z"/>
<path fill="#F4EBEF" opacity="1.000000" stroke="none" 
	d="
M41.054703,61.174526 
	C39.312302,61.123383 37.569897,61.072239 35.153980,61.019806 
	C34.319328,60.959030 34.158188,60.899544 33.997051,60.840061 
	C33.031311,59.185207 32.423008,57.072716 31.020393,55.977200 
	C28.603500,54.089462 28.300245,52.761585 31.010813,51.162804 
	C35.839203,48.314854 35.819473,48.363724 31.464291,45.143883 
	C30.569168,44.482109 29.959158,43.434696 29.013483,42.202042 
	C28.809235,41.839054 28.880455,41.723026 29.163780,41.755646 
	C29.634777,41.757755 29.822445,41.727245 30.379322,41.802521 
	C32.152298,41.626652 33.556065,41.344997 35.190243,41.430706 
	C40.969311,41.620773 46.517960,41.443481 52.447311,41.218422 
	C58.964199,41.871956 63.228687,44.885628 64.917854,51.332737 
	C64.881744,52.101398 64.906494,52.543091 64.679550,53.205772 
	C63.615509,55.282650 62.803146,57.138535 61.610451,59.030296 
	C58.127522,59.792767 55.024925,60.519360 51.475639,61.163963 
	C47.704197,61.112827 44.379448,61.143677 41.054703,61.174526 
z"/>
<path fill="#304052" opacity="1.000000" stroke="none" 
	d="
M25.028564,82.018822 
	C26.350372,87.051254 27.672178,92.083679 28.675152,97.689964 
	C27.246487,98.519600 26.136654,98.775383 24.608093,99.023407 
	C18.848133,100.331818 13.506897,101.647995 8.165661,102.964172 
	C8.128364,101.937691 8.091067,100.911209 8.517899,99.405838 
	C10.298679,97.127037 11.900775,95.468567 12.876348,93.499672 
	C15.402469,88.401459 17.652479,83.166451 20.355169,78.027206 
	C21.798180,78.377785 22.898746,78.687210 24.002960,79.335434 
	C24.347260,80.455757 24.687912,81.237289 25.028564,82.018822 
z"/>
<path fill="#3D78A0" opacity="1.000000" stroke="none" 
	d="
M8.017298,17.399508 
	C13.007176,17.037544 17.955891,17.042706 23.396626,17.499786 
	C22.539679,23.767935 23.387133,29.160248 26.434511,34.377331 
	C27.708324,36.558083 28.092041,39.258747 28.880455,41.723026 
	C28.880455,41.723026 28.809235,41.839054 28.854004,41.889812 
	C21.105515,38.861790 13.398103,35.670567 9.361187,27.109730 
	C9.023276,26.527164 8.998211,26.097094 9.382982,25.393023 
	C11.446867,25.218716 13.100913,25.318409 14.754960,25.418100 
	C14.485383,23.426933 14.809061,21.042656 13.809964,19.534897 
	C12.232562,17.154400 9.956376,17.524553 8.256630,19.941875 
	C8.163131,19.216795 8.069631,18.491713 8.017298,17.399508 
z"/>
<path fill="#334858" opacity="1.000000" stroke="none" 
	d="
M20.012726,77.986053 
	C17.652479,83.166451 15.402469,88.401459 12.876348,93.499672 
	C11.900775,95.468567 10.298679,97.127037 8.593758,99.027000 
	C8.135714,91.388893 8.065941,83.650726 8.498066,75.452606 
	C13.001933,73.992157 17.003901,72.991653 21.009518,72.327324 
	C21.026617,73.111511 21.040066,73.559532 21.045631,74.339264 
	C21.037163,75.113388 21.036577,75.555794 20.794655,76.169304 
	C20.373123,76.888962 20.192924,77.437508 20.012726,77.986053 
z"/>
<path fill="#3C525F" opacity="1.000000" stroke="none" 
	d="
M8.072527,103.340088 
	C13.506897,101.647995 18.848133,100.331818 24.639294,99.365295 
	C27.670597,103.674408 21.606543,103.966331 21.699028,107.154007 
	C18.226358,110.897026 15.054483,114.483589 11.882610,118.070160 
	C8.681703,113.802048 7.492229,108.986977 8.072527,103.340088 
z"/>
<path fill="#3C3047" opacity="1.000000" stroke="none" 
	d="
M21.035990,75.998192 
	C21.036577,75.555794 21.037163,75.113388 21.418377,74.323250 
	C22.458464,73.598022 23.568563,73.341179 23.706957,72.824211 
	C24.949381,68.183105 27.179392,64.213882 30.987196,61.204391 
	C31.742388,61.135468 32.497578,61.066547 33.624908,60.918842 
	C34.158188,60.899544 34.319328,60.959030 34.724922,61.099701 
	C35.319618,63.842354 35.669853,66.503822 35.774010,69.782059 
	C36.018520,71.265587 36.509106,72.132332 36.999695,72.999084 
	C37.008251,73.439026 37.016804,73.878960 37.035858,74.648277 
	C34.123993,77.111893 31.201626,79.246132 28.136274,81.699310 
	C27.251774,82.015892 26.510258,82.013550 25.398653,82.015015 
	C24.687912,81.237289 24.347260,80.455757 23.993422,78.968864 
	C22.998821,77.508400 22.017406,76.753296 21.035990,75.998192 
z"/>
<path fill="#244256" opacity="1.000000" stroke="none" 
	d="
M21.005867,71.991150 
	C17.003901,72.991653 13.001933,73.992157 8.581312,74.989708 
	C8.112114,74.538635 8.061569,74.090508 8.320337,73.027527 
	C8.470124,70.280457 8.310598,68.148239 8.151073,66.016029 
	C8.099681,64.940674 8.048288,63.865318 8.251380,62.299217 
	C8.726488,61.649120 8.889844,61.444126 8.995932,61.193493 
	C11.046206,61.141262 13.096479,61.089031 15.654641,61.451836 
	C20.294594,64.037231 21.873611,67.428940 21.005867,71.991150 
z"/>
<path fill="#2E3247" opacity="1.000000" stroke="none" 
	d="
M21.009518,72.327324 
	C21.873611,67.428940 20.294594,64.037231 16.087532,61.532307 
	C20.701561,61.149242 25.390587,61.100750 30.533405,61.128326 
	C27.179392,64.213882 24.949381,68.183105 23.706957,72.824211 
	C23.568563,73.341179 22.458464,73.598022 21.426258,73.991531 
	C21.040066,73.559532 21.026617,73.111511 21.009518,72.327324 
z"/>
<path fill="#515F6F" opacity="1.000000" stroke="none" 
	d="
M11.946259,118.407021 
	C15.054483,114.483589 18.226358,110.897026 21.697159,107.539307 
	C20.577684,110.460922 19.086742,113.119461 17.789518,115.869400 
	C17.445221,116.599266 17.696146,117.609924 17.673771,118.491653 
	C18.449118,118.326797 19.224463,118.161942 19.999783,118.413254 
	C19.998993,120.215202 19.998226,121.600967 19.728579,123.230049 
	C19.272610,124.168762 19.085520,124.864174 18.898432,125.559578 
	C16.602259,123.287682 14.306084,121.015785 11.946259,118.407021 
z"/>
<path fill="#6B6278" opacity="1.000000" stroke="none" 
	d="
M19.116371,125.780907 
	C19.085520,124.864174 19.272610,124.168762 20.126682,123.236008 
	C21.853596,122.997650 22.913523,122.996651 23.973450,122.995651 
	C23.993948,123.811928 24.014446,124.628204 24.016956,125.720871 
	C23.992100,126.481575 23.985231,126.965889 23.965458,127.813431 
	C22.413139,127.451843 20.873726,126.727036 19.116371,125.780907 
z"/>
<path fill="#334858" opacity="1.000000" stroke="none" 
	d="
M8.067141,66.445099 
	C8.310598,68.148239 8.470124,70.280457 8.392118,72.694870 
	C8.097461,70.942772 8.040335,68.908463 8.067141,66.445099 
z"/>
<path fill="#334858" opacity="1.000000" stroke="none" 
	d="
M8.735521,61.151581 
	C8.889844,61.444126 8.726488,61.649120 8.330709,61.902046 
	C8.262072,61.700302 8.368591,61.404987 8.735521,61.151581 
z"/>
<path fill="#1577AB" opacity="1.000000" stroke="none" 
	d="
M8.237310,20.312737 
	C9.956376,17.524553 12.232562,17.154400 13.809964,19.534897 
	C14.809061,21.042656 14.485383,23.426933 14.754960,25.418100 
	C13.100913,25.318409 11.446867,25.218716 9.455902,25.077415 
	C8.818652,23.585072 8.518321,22.134336 8.237310,20.312737 
z"/>
<path fill="#1577AB" opacity="1.000000" stroke="none" 
	d="
M7.551887,25.893692 
	C7.595212,25.624786 7.450048,25.355923 7.450048,25.355923 
	C7.450048,25.355923 7.240303,25.647202 7.232860,25.672211 
	C7.319798,25.852345 7.414180,26.007469 7.551887,25.893692 
z"/>
<path fill="#E17E98" opacity="1.000000" stroke="none" 
	d="
M29.163780,41.755646 
	C28.092041,39.258747 27.708324,36.558083 26.434511,34.377331 
	C23.387133,29.160248 22.539679,23.767935 23.850086,17.537653 
	C24.014954,17.085793 24.218380,17.047981 24.715416,16.908684 
	C27.415892,17.042892 29.822756,17.278591 32.867378,17.691757 
	C33.674751,17.934719 33.844368,18.000212 33.988037,18.373386 
	C33.942879,19.091852 33.923660,19.502636 33.618324,20.166023 
	C33.237816,21.947531 33.143429,23.476435 32.981888,25.319603 
	C32.897999,26.061047 32.881264,26.488226 32.643620,27.243378 
	C31.618511,32.279812 30.814312,36.988277 30.010113,41.696739 
	C29.822445,41.727245 29.634777,41.757755 29.163780,41.755646 
z"/>
<path fill="#164C85" opacity="1.000000" stroke="none" 
	d="
M99.916473,50.322227 
	C103.669823,44.582031 107.437103,39.168766 111.670258,33.923241 
	C114.777565,35.708893 117.418991,37.326805 120.161209,39.135307 
	C120.262016,39.325897 120.360352,39.745743 120.250572,40.192200 
	C119.078934,46.741783 118.017075,52.844910 116.660110,59.115322 
	C115.200935,60.823772 114.036873,62.364937 112.519745,63.920792 
	C111.460960,63.969532 110.755234,64.003578 109.787323,63.924744 
	C109.035805,63.526608 108.546455,63.241352 107.910378,62.636330 
	C106.144547,59.197651 104.525444,56.078735 102.791031,52.698875 
	C101.660362,52.265934 100.645004,52.093937 99.629646,51.921940 
	C99.729904,51.497681 99.830154,51.073418 99.916473,50.322227 
z"/>
<path fill="#293A4D" opacity="1.000000" stroke="none" 
	d="
M101.950935,99.025742 
	C101.338890,97.901184 100.726852,96.776611 100.440796,95.259506 
	C102.153885,92.500763 103.716644,90.218208 104.891670,87.750992 
	C107.367973,82.551460 109.641174,77.255203 112.305634,72.166275 
	C114.080391,75.226128 115.547211,78.118324 117.013077,81.383118 
	C117.013039,82.501350 117.013962,83.247009 116.862854,84.329941 
	C115.360046,87.125000 113.910469,89.535164 112.694878,92.058075 
	C111.944946,93.614517 111.551689,95.342819 110.603210,97.007057 
	C107.455734,97.688690 104.703331,98.357216 101.950935,99.025742 
z"/>
<path fill="#2A4555" opacity="1.000000" stroke="none" 
	d="
M111.997711,71.998634 
	C109.641174,77.255203 107.367973,82.551460 104.891670,87.750992 
	C103.716644,90.218208 102.153885,92.500763 100.429367,94.932556 
	C99.084587,92.244553 98.077209,89.490967 97.360367,86.174118 
	C99.752419,81.404213 101.853928,77.197578 104.200592,72.821594 
	C104.635170,72.105247 104.824600,71.558250 105.021622,71.025787 
	C105.029221,71.040321 105.061684,71.035660 105.256996,70.932037 
	C105.695244,70.639557 105.849457,70.394798 106.217804,69.931084 
	C107.696938,67.857887 108.873222,65.947754 110.049500,64.037621 
	C110.755234,64.003578 111.460960,63.969532 112.512634,64.327225 
	C112.571617,67.145523 112.284660,69.572083 111.997711,71.998634 
z"/>
<path fill="#0778B5" opacity="1.000000" stroke="none" 
	d="
M102.906349,52.959824 
	C104.525444,56.078735 106.144547,59.197651 107.885155,63.004929 
	C107.007202,65.801620 106.007736,67.909943 105.012848,70.273071 
	C105.032173,70.697136 105.046928,70.866394 105.061684,71.035660 
	C105.061684,71.035660 105.029221,71.040321 104.630409,71.021652 
	C101.537071,71.000450 98.842552,70.997925 96.117401,70.588440 
	C95.977020,69.376152 95.867264,68.570801 95.757507,67.765457 
	C95.756050,67.357643 95.754593,66.949821 96.228828,66.178070 
	C97.138336,64.671005 97.495209,63.491116 98.020515,62.391708 
	C99.547310,59.196331 98.494904,54.657089 102.906349,52.959824 
z"/>
<path fill="#E6386B" opacity="1.000000" stroke="none" 
	d="
M81.201035,73.126030 
	C80.939514,73.548409 80.677986,73.970795 80.361176,74.637634 
	C79.617554,75.401054 78.929207,75.920006 77.877991,76.784851 
	C77.180809,77.321503 77.070305,77.600822 77.183617,77.968719 
	C74.459267,79.709816 71.734917,81.450905 68.569229,83.161926 
	C68.127907,83.131851 67.935791,82.953590 67.966949,82.489700 
	C67.548492,76.192734 67.098877,70.359650 66.738617,64.276245 
	C66.903870,63.672493 66.979774,63.319061 67.306137,63.081146 
	C68.028923,63.477047 68.501259,63.757431 69.132240,64.328896 
	C73.041512,67.762573 75.093666,73.283340 81.201035,73.126030 
z"/>
<path fill="#3C4D5C" opacity="1.000000" stroke="none" 
	d="
M101.999435,99.371384 
	C104.703331,98.357216 107.455734,97.688690 110.990692,96.960403 
	C114.516312,96.265884 117.259377,95.631111 120.002754,95.329926 
	C120.005165,96.108192 120.007263,96.552872 120.002945,97.243271 
	C119.996521,97.488998 119.982788,97.980415 119.645294,98.047386 
	C115.791626,101.772881 112.275452,105.431404 108.759277,109.089928 
	C106.522171,105.965630 104.285057,102.841331 101.999435,99.371384 
z"/>
<path fill="#EBBFA6" opacity="1.000000" stroke="none" 
	d="
M84.370728,121.045135 
	C84.015999,116.602501 84.023888,112.203880 84.056335,107.326050 
	C87.342270,109.671364 90.603638,112.495888 94.079391,115.588638 
	C91.390602,118.119240 90.092781,123.314873 84.370728,121.045135 
z"/>
<path fill="#423F53" opacity="1.000000" stroke="none" 
	d="
M108.883850,109.406876 
	C112.275452,105.431404 115.791626,101.772881 119.650879,98.466492 
	C119.329605,101.879868 118.665245,104.941109 118.000885,108.002342 
	C117.302216,110.499062 116.603539,112.995781 115.921158,115.850037 
	C113.627769,114.046318 111.318092,111.885071 108.883850,109.406876 
z"/>
<path fill="#417D9D" opacity="1.000000" stroke="none" 
	d="
M95.549843,68.129532 
	C95.867264,68.570801 95.977020,69.376152 96.085098,70.953140 
	C97.754959,78.068489 101.284042,72.863518 103.955444,72.990944 
	C101.853928,77.197578 99.752419,81.404213 97.362076,85.795807 
	C96.496231,80.151718 95.919205,74.322655 95.549843,68.129532 
z"/>
<path fill="#D8A0B1" opacity="1.000000" stroke="none" 
	d="
M75.357742,110.960045 
	C74.539528,110.687401 74.071556,110.367409 73.309570,110.018845 
	C73.014702,109.549751 73.013840,109.109207 73.365707,108.261154 
	C74.145523,106.568581 74.572609,105.283531 75.149643,103.703278 
	C76.310226,102.221397 77.320869,101.034721 78.331512,99.848045 
	C79.887108,101.628845 81.442703,103.409645 83.051140,105.523636 
	C80.638649,107.542114 78.173317,109.227402 75.357742,110.960045 
z"/>
<path fill="#217CA7" opacity="1.000000" stroke="none" 
	d="
M102.791031,52.698875 
	C98.494904,54.657089 99.547310,59.196331 98.020515,62.391708 
	C97.495209,63.491116 97.138336,64.671005 96.334167,65.888565 
	C97.015289,61.435486 98.066742,56.907974 99.373917,52.151199 
	C100.645004,52.093937 101.660362,52.265934 102.791031,52.698875 
z"/>
<path fill="#D098A8" opacity="1.000000" stroke="none" 
	d="
M78.139328,99.590973 
	C77.320869,101.034721 76.310226,102.221397 74.817001,103.703735 
	C73.890930,104.000412 73.447449,104.001427 73.003967,104.002441 
	C72.885948,103.687737 72.692688,103.429291 72.208099,103.111984 
	C71.992729,101.930267 71.993454,100.863663 72.346825,99.391388 
	C73.454147,98.320221 74.208809,97.654732 74.963470,96.989243 
	C74.963478,96.989243 75.420334,96.979774 75.647720,96.993271 
	C76.565788,97.782471 77.256462,98.558189 78.139328,99.590973 
z"/>
<path fill="#E6386B" opacity="1.000000" stroke="none" 
	d="
M68.221268,83.223808 
	C68.054428,83.531197 67.794228,83.746628 67.280563,84.018417 
	C67.027100,84.074768 67.120033,83.828102 67.248367,83.577240 
	C67.546822,83.177773 67.733185,83.053513 67.935791,82.953590 
	C67.935791,82.953590 68.127907,83.131851 68.221268,83.223808 
z"/>
<path fill="#F3F0F0" opacity="1.000000" stroke="none" 
	d="
M77.361710,77.855087 
	C77.070305,77.600822 77.180809,77.321503 77.753082,77.084435 
	C77.908791,77.316292 77.758377,77.550743 77.361710,77.855087 
z"/>
<path fill="#EDB0C1" opacity="1.000000" stroke="none" 
	d="
M171.977188,98.744530 
	C172.430313,98.816605 172.883453,98.888687 173.678406,99.005676 
	C174.020248,99.050591 174.016235,99.527039 174.026901,99.765091 
	C174.014175,101.689743 174.573318,103.688095 173.866440,105.008881 
	C170.830353,110.681747 170.868134,116.407745 172.852066,122.666260 
	C169.926361,123.969620 166.851761,124.934715 163.393158,125.950363 
	C163.201187,125.047928 163.096313,123.496292 163.629776,123.231720 
	C171.673874,119.242180 167.885834,113.164955 166.277435,107.258316 
	C166.314041,105.205032 166.618118,103.408653 167.190613,100.981079 
	C168.965088,99.814766 170.471146,99.279648 171.977188,98.744530 
z"/>
<path fill="#723253" opacity="1.000000" stroke="none" 
	d="
M42.981255,85.009544 
	C40.696091,82.721748 41.256271,76.401535 43.952625,74.049263 
	C44.922516,73.203133 45.892227,72.356789 46.761585,71.598175 
	C46.095436,69.737236 45.551514,68.217743 45.292614,66.474426 
	C47.019482,67.470078 48.461323,68.689568 50.076309,70.204674 
	C51.224953,71.976181 52.200455,73.452072 52.861885,75.075096 
	C49.358959,78.484673 46.170109,81.747108 42.981255,85.009544 
z"/>
<path fill="#7F3F60" opacity="1.000000" stroke="none" 
	d="
M42.984177,85.408112 
	C46.170109,81.747108 49.358959,78.484673 53.156540,75.128571 
	C54.189487,75.655403 54.613705,76.275894 54.988758,77.252350 
	C51.285973,81.411652 47.632351,85.214996 43.978729,89.018349 
	C43.808529,89.016518 43.638325,89.014687 43.212414,89.004601 
	C42.966839,87.933121 42.976967,86.869904 42.984177,85.408112 
z"/>
<path fill="#A93D73" opacity="1.000000" stroke="none" 
	d="
M49.903168,69.909050 
	C48.461323,68.689568 47.019482,67.470078 45.291451,66.108139 
	C44.526184,65.388924 44.047100,64.812164 43.261047,63.797733 
	C42.353149,62.883915 41.752220,62.407761 41.151291,61.931602 
	C41.151291,61.931602 41.099804,61.553215 41.077255,61.363869 
	C44.379448,61.143677 47.704197,61.112827 51.473640,61.544273 
	C51.993469,63.259495 52.068596,64.512421 51.785194,65.880478 
	C50.918839,67.300087 50.411003,68.604568 49.903168,69.909050 
z"/>
<path fill="#723253" opacity="1.000000" stroke="none" 
	d="
M40.902554,62.124130 
	C41.752220,62.407761 42.353149,62.883915 43.004704,63.669964 
	C42.254822,63.425457 41.454319,62.871056 40.902554,62.124130 
z"/>
<path fill="#42324A" opacity="1.000000" stroke="none" 
	d="
M37.001450,72.663315 
	C36.509106,72.132332 36.018520,71.265587 35.776695,70.194794 
	C36.351372,70.769684 36.677288,71.548622 37.001450,72.663315 
z"/>
<path fill="#D08CA4" opacity="1.000000" stroke="none" 
	d="
M74.616089,96.997406 
	C74.208809,97.654732 73.454147,98.320221 72.348083,98.991333 
	C72.754028,98.333168 73.511368,97.669373 74.616089,96.997406 
z"/>
<path fill="#F9E6EF" opacity="1.000000" stroke="none" 
	d="
M171.906113,98.446960 
	C170.471146,99.279648 168.965088,99.814766 167.232788,100.590759 
	C166.561386,100.880417 166.116226,100.929207 165.335693,100.980377 
	C166.377670,97.865211 168.793472,97.252556 171.906113,98.446960 
z"/>
<path fill="#F3F2F3" opacity="1.000000" stroke="none" 
	d="
M149.998459,42.063026 
	C151.157303,44.271961 151.614624,47.536160 156.012344,45.401672 
	C155.389160,47.089531 154.927002,48.341286 154.227722,50.235233 
	C157.089920,50.664444 159.743042,51.062298 163.732574,51.660561 
	C162.096176,53.189861 161.231918,54.708103 160.170364,54.861549 
	C156.406357,55.405636 155.901062,57.669975 155.953339,60.872520 
	C156.091339,69.325600 155.888351,77.784401 156.039169,86.237038 
	C156.140091,91.893326 156.544067,97.520180 150.620789,101.648514 
	C146.322266,101.712677 142.494843,101.423904 138.667404,101.135124 
	C138.296997,101.094360 137.926590,101.053596 137.276566,101.011810 
	C135.223297,99.721428 133.449631,98.432060 131.231506,96.758690 
	C129.915375,95.602516 129.043701,94.830353 128.018860,93.751442 
	C126.570007,91.631668 125.274307,89.818649 123.933388,87.666336 
	C122.895851,85.547951 121.903549,83.768860 121.014679,81.615913 
	C120.770241,78.096062 120.051514,74.937981 120.153633,71.806664 
	C120.351135,65.750420 122.544029,60.219315 125.886055,54.865501 
	C126.795792,53.483452 127.469276,52.285439 128.097321,51.071636 
	C128.051895,51.055851 128.037537,51.150967 128.336014,51.328712 
	C129.083054,51.029293 129.531631,50.552132 130.293579,49.929268 
	C134.404694,47.631237 138.202408,45.478909 142.065338,43.653328 
	C145.791779,49.129402 146.308167,43.824776 148.273926,42.119766 
	C149.070587,42.025982 149.534515,42.044506 149.998459,42.063026 
z"/>
<path fill="#674C66" opacity="1.000000" stroke="none" 
	d="
M128.172012,94.058197 
	C129.043701,94.830353 129.915375,95.602516 130.921478,96.636566 
	C128.252304,102.476906 125.448708,108.055351 122.322868,113.799881 
	C121.968201,111.550194 121.935768,109.134422 122.090897,106.017982 
	C123.195183,102.876129 124.111908,100.434952 125.310898,97.961830 
	C125.739838,97.291595 125.886505,96.653305 126.028107,95.752670 
	C126.014854,95.315598 126.006676,95.140854 126.003799,94.741486 
	C126.009087,94.516861 126.021805,94.067665 126.379768,94.056778 
	C127.215828,94.049995 127.693916,94.054100 128.172012,94.058197 
z"/>
<path fill="#C80F64" opacity="1.000000" stroke="none" 
	d="
M50.076309,70.204674 
	C50.411003,68.604568 50.918839,67.300087 52.189522,65.891090 
	C57.518002,65.366570 62.083637,64.946564 66.649269,64.526566 
	C67.098877,70.359650 67.548492,76.192734 67.966949,82.489700 
	C67.733185,83.053513 67.546822,83.177773 67.266708,83.446724 
	C66.045837,83.714592 64.934982,83.862114 63.365181,83.687668 
	C61.601345,82.225784 60.296448,81.085869 58.749687,79.736862 
	C57.351192,78.650650 56.194557,77.773521 55.037922,76.896393 
	C54.613705,76.275894 54.189487,75.655403 53.470612,74.981430 
	C52.200455,73.452072 51.224953,71.976181 50.076309,70.204674 
z"/>
<path fill="#A15D7F" opacity="1.000000" stroke="none" 
	d="
M58.991550,79.945946 
	C60.296448,81.085869 61.601345,82.225784 62.948441,83.692001 
	C60.360924,87.207558 57.860992,90.517105 55.055916,93.543846 
	C53.181675,95.566185 50.873360,97.186249 48.523186,98.668434 
	C49.567444,96.541496 50.914059,94.775177 52.114071,92.914322 
	C54.445614,89.298798 56.694851,85.630196 58.982365,81.644440 
	C58.988216,80.852180 58.989883,80.399063 58.991550,79.945946 
z"/>
<path fill="#955876" opacity="1.000000" stroke="none" 
	d="
M58.978180,81.983582 
	C56.694851,85.630196 54.445614,89.298798 52.114071,92.914322 
	C50.914059,94.775177 49.567444,96.541496 48.145515,98.674026 
	C47.238342,98.974831 46.472721,98.952148 45.329666,98.854652 
	C44.967705,98.083519 44.983177,97.387192 45.338490,96.279663 
	C50.111610,91.240166 54.544899,86.611877 58.978180,81.983582 
z"/>
<path fill="#CC8FAB" opacity="1.000000" stroke="none" 
	d="
M139.201202,123.245178 
	C138.988205,122.825394 138.991348,122.658478 139.153381,121.940300 
	C141.038345,118.601212 142.785416,115.826111 144.485260,113.022377 
	C146.700394,109.368736 148.314514,104.927307 154.009491,106.013947 
	C150.932739,110.522095 147.866684,115.037598 144.772476,119.533730 
	C143.893723,120.810646 142.932968,122.031128 141.998199,123.646805 
	C141.130157,123.843437 140.273743,123.670746 139.201202,123.245178 
z"/>
<path fill="#C385A4" opacity="1.000000" stroke="none" 
	d="
M154.228699,105.870544 
	C148.314514,104.927307 146.700394,109.368736 144.485260,113.022377 
	C142.785416,115.826111 141.038345,118.601212 139.154541,121.689880 
	C138.087585,120.529442 137.178391,119.068161 136.280426,116.982086 
	C136.935150,115.425140 137.437729,113.842682 138.245285,113.667702 
	C143.024414,112.632179 143.052719,108.103844 145.202057,104.902786 
	C145.661606,104.624336 145.843292,104.389130 146.399902,104.060944 
	C149.549835,104.111465 152.249008,104.196381 154.948181,104.281296 
	C154.781418,104.763245 154.614670,105.245186 154.228699,105.870544 
z"/>
<path fill="#F9E6EF" opacity="1.000000" stroke="none" 
	d="
M155.277344,104.184021 
	C152.249008,104.196381 149.549835,104.111465 146.071182,103.963387 
	C144.188766,103.638443 143.085846,103.376648 141.982910,103.114853 
	C141.005844,102.635765 140.028793,102.156677 138.859558,101.406357 
	C142.494843,101.423904 146.322266,101.712677 150.576691,102.000763 
	C153.213318,102.196571 155.422974,102.393059 157.845688,102.843597 
	C157.241333,103.427345 156.423935,103.757042 155.277344,104.184021 
z"/>
<path fill="#F9E6EF" opacity="1.000000" stroke="none" 
	d="
M162.307556,102.029160 
	C162.519211,101.715004 163.048111,101.397186 163.906067,101.091217 
	C163.698364,101.410538 163.161575,101.718018 162.307556,102.029160 
z"/>
<path fill="#F9E6EF" opacity="1.000000" stroke="none" 
	d="
M160.258850,102.891800 
	C160.242355,102.708786 160.479507,102.458717 160.973114,102.139252 
	C160.990555,102.321480 160.751526,102.573112 160.258850,102.891800 
z"/>
<path fill="#BC799C" opacity="1.000000" stroke="none" 
	d="
M145.000000,105.004616 
	C143.052719,108.103844 143.024414,112.632179 138.245285,113.667702 
	C137.437729,113.842682 136.935150,115.425140 136.144943,116.681000 
	C135.830200,117.004776 135.662170,117.004852 134.987762,116.765671 
	C134.789627,115.227371 134.883224,113.825119 135.448380,112.649597 
	C136.856842,109.720032 138.479858,106.893623 140.016724,104.025803 
	C140.457047,104.020576 140.897369,104.015358 141.881744,104.258644 
	C143.283875,104.672974 144.141937,104.838791 145.000000,105.004616 
z"/>
<path fill="#AB7695" opacity="1.000000" stroke="none" 
	d="
M139.666687,104.055237 
	C138.479858,106.893623 136.856842,109.720032 135.448380,112.649597 
	C134.883224,113.825119 134.789627,115.227371 134.735718,116.766312 
	C134.212769,118.300369 133.435471,119.594536 132.322266,120.939560 
	C129.649567,114.527718 132.185135,108.679962 139.666687,104.055237 
z"/>
<path fill="#AB7695" opacity="1.000000" stroke="none" 
	d="
M145.202057,104.902786 
	C144.141937,104.838791 143.283875,104.672974 142.211975,104.253326 
	C141.998154,103.999504 141.989639,103.556984 141.986267,103.335922 
	C143.085846,103.376648 144.188766,103.638443 145.620422,103.997787 
	C145.843292,104.389130 145.661606,104.624336 145.202057,104.902786 
z"/>
<path fill="#D896AD" opacity="1.000000" stroke="none" 
	d="
M73.003448,104.402809 
	C73.447449,104.001427 73.890930,104.000412 74.667053,103.998940 
	C74.572609,105.283531 74.145523,106.568581 73.367096,107.930649 
	C73.011475,106.939507 73.007195,105.871338 73.003448,104.402809 
z"/>
<path fill="#4D4F63" opacity="1.000000" stroke="none" 
	d="
M19.999805,117.997086 
	C19.224463,118.161942 18.449118,118.326797 17.673771,118.491653 
	C17.696146,117.609924 17.445221,116.599266 17.789518,115.869400 
	C19.086742,113.119461 20.577684,110.460922 21.997952,107.382858 
	C21.606543,103.966331 27.670597,103.674408 25.058022,99.373062 
	C26.136654,98.775383 27.246487,98.519600 28.671747,98.117584 
	C28.904488,100.105576 28.821802,102.239784 28.867126,104.673050 
	C27.998796,107.398270 27.002459,109.824448 25.661652,112.661781 
	C23.544725,114.714317 21.772266,116.355705 19.999805,117.997086 
z"/>
<path fill="#5C5C72" opacity="1.000000" stroke="none" 
	d="
M19.999783,118.413254 
	C21.772266,116.355705 23.544725,114.714317 25.653923,113.032272 
	C26.438589,112.994629 26.886513,112.997643 27.670410,113.003838 
	C26.697645,115.766609 25.388908,118.526192 24.038420,121.640404 
	C23.992561,122.161804 23.988457,122.328583 23.978901,122.745514 
	C22.913523,122.996651 21.853596,122.997650 20.395565,122.992691 
	C19.998226,121.600967 19.998993,120.215202 19.999783,118.413254 
z"/>
<path fill="#473950" opacity="1.000000" stroke="none" 
	d="
M128.018860,93.751442 
	C127.693916,94.054100 127.215828,94.049995 126.218300,94.125870 
	C125.638069,94.304611 125.503654,94.460129 125.528755,94.492676 
	C125.663437,94.667374 125.837830,94.811455 125.998505,94.966118 
	C126.006676,95.140854 126.014854,95.315598 125.783089,95.917831 
	C125.371651,96.894806 125.200142,97.444290 125.028641,97.993774 
	C124.111908,100.434952 123.195183,102.876129 122.127411,105.647629 
	C120.845078,106.555191 119.713799,107.132431 118.291702,107.856003 
	C118.665245,104.941109 119.329605,101.879868 119.988373,98.399521 
	C119.982788,97.980415 119.996521,97.488998 120.239716,97.066742 
	C120.651527,96.090363 120.820152,95.536255 120.988937,94.651436 
	C120.991219,93.879784 120.993340,93.438843 121.258987,92.796570 
	C122.341225,91.065376 123.159920,89.535507 123.978622,88.005630 
	C125.274307,89.818649 126.570007,91.631668 128.018860,93.751442 
z"/>
<path fill="#8E4C6C" opacity="1.000000" stroke="none" 
	d="
M58.982368,81.644440 
	C54.544899,86.611877 50.111610,91.240166 45.336380,95.929077 
	C44.658684,93.942635 44.322937,91.895569 43.982960,89.433426 
	C47.632351,85.214996 51.285973,81.411652 54.988758,77.252350 
	C56.194557,77.773521 57.351192,78.650650 58.749687,79.736862 
	C58.989883,80.399063 58.988216,80.852180 58.982368,81.644440 
z"/>
<path fill="#E7366F" opacity="1.000000" stroke="none" 
	d="
M150.427063,41.951576 
	C149.534515,42.044506 149.070587,42.025982 148.026642,42.011047 
	C147.277832,41.951752 147.109009,41.888874 146.722229,41.602753 
	C145.693375,41.240093 144.882492,41.100681 144.050873,40.966484 
	C144.030167,40.971703 144.038849,40.929878 144.034790,40.473183 
	C144.352188,35.012665 144.673645,30.008841 145.010941,24.984766 
	C145.026764,24.964516 145.056122,24.922337 145.056122,24.922337 
	C153.440567,27.083502 156.908340,31.728197 157.037506,41.409485 
	C154.974426,41.842651 152.915054,41.841389 150.427063,41.951576 
z"/>
<path fill="#EDEBEA" opacity="1.000000" stroke="none" 
	d="
M176.265274,48.437706 
	C176.797516,48.163284 177.537201,48.087620 178.646408,48.066959 
	C178.168198,48.293461 177.320450,48.464966 176.265274,48.437706 
z"/>
<path fill="#F1263B" opacity="1.000000" stroke="none" 
	d="
M173.403320,45.977760 
	C173.104309,44.119545 173.459045,42.223610 173.228180,40.401897 
	C172.382004,33.725204 170.389679,32.078655 163.527451,31.983814 
	C157.625992,31.902252 156.972595,30.758545 159.829239,25.682901 
	C160.791412,23.973337 161.596375,22.175282 162.752747,20.206741 
	C167.669296,21.535702 172.306839,23.074018 176.940918,24.622681 
	C177.087189,24.671556 177.198410,24.826290 177.325027,24.932791 
	C181.086197,28.096596 178.438950,43.845795 173.403320,45.977760 
z"/>
<path fill="#E00B4E" opacity="1.000000" stroke="none" 
	d="
M68.973602,64.037811 
	C68.501259,63.757431 68.028923,63.477047 67.247650,62.876919 
	C66.938705,62.557171 66.853889,62.140656 66.904999,61.706665 
	C66.281151,58.510048 65.606194,55.747414 64.931244,52.984783 
	C64.906494,52.543091 64.881744,52.101398 65.204193,51.078957 
	C64.741447,42.529797 66.826668,33.403992 56.927742,28.705715 
	C55.932236,27.903345 54.985870,27.444662 53.821609,26.877033 
	C53.327492,26.578787 53.124699,26.329695 52.998131,25.575214 
	C53.003227,22.764723 53.005524,20.399824 53.407642,18.012798 
	C54.874432,18.012461 55.941399,18.034252 57.129917,18.262547 
	C57.464161,18.724792 57.732018,18.892429 58.452568,18.979836 
	C59.634636,18.915081 60.419182,18.842453 61.203732,18.769827 
	C61.203732,18.769827 61.636295,18.783667 61.991173,19.208775 
	C64.900658,20.749969 67.455261,21.866055 70.029854,22.988962 
	C70.049843,22.995785 70.093040,22.996820 69.932632,23.315668 
	C68.170631,26.764133 66.569046,29.893753 64.466629,34.002041 
	C67.306465,34.002041 69.070076,33.996506 70.833641,34.002998 
	C78.406555,34.030876 83.320923,41.557396 79.628998,48.242741 
	C76.570877,53.780396 72.561516,58.792736 68.973602,64.037811 
z"/>
<path fill="#F0263B" opacity="1.000000" stroke="none" 
	d="
M69.132248,64.328896 
	C72.561516,58.792736 76.570877,53.780396 79.628998,48.242741 
	C83.320923,41.557396 78.406555,34.030876 70.833641,34.002998 
	C69.070076,33.996506 67.306465,34.002041 64.466629,34.002041 
	C66.569046,29.893753 68.170631,26.764133 70.277084,23.360971 
	C73.726067,25.837982 76.572548,28.703426 79.639481,31.309444 
	C83.312790,34.430702 85.098198,38.102634 84.617775,43.036495 
	C84.363869,45.644058 84.936172,48.332073 85.122910,51.335747 
	C85.079948,52.156322 85.049530,52.624912 84.716476,53.317986 
	C84.000031,57.699265 83.586235,61.856064 83.152306,66.418785 
	C83.064354,68.440681 82.996536,70.056656 82.928726,71.672630 
	C82.521667,72.069572 82.114616,72.466515 81.454300,72.994743 
	C75.093666,73.283340 73.041512,67.762573 69.132248,64.328896 
z"/>
<path fill="#EC7143" opacity="1.000000" stroke="none" 
	d="
M83.189972,71.487434 
	C82.996536,70.056656 83.064354,68.440681 83.395775,66.116943 
	C84.112625,61.303947 84.565872,57.198727 85.019119,53.093502 
	C85.049530,52.624912 85.079948,52.156322 85.364059,51.036842 
	C86.200951,47.113831 86.784126,43.841713 87.367302,40.569595 
	C92.008980,51.571606 90.118568,61.741272 83.189972,71.487434 
z"/>
<path fill="#B43779" opacity="1.000000" stroke="none" 
	d="
M57.008366,18.056044 
	C55.941399,18.034252 54.874432,18.012461 53.000679,17.998034 
	C47.335125,17.954660 49.578480,21.759825 48.534454,24.002247 
	C43.387890,22.640806 38.646168,21.277113 33.904446,19.913418 
	C33.923660,19.502636 33.942879,19.091852 34.366192,18.177467 
	C42.845070,17.387604 50.919857,17.101341 58.994640,16.815081 
	C59.704472,17.248619 60.414299,17.682159 61.163933,18.442762 
	C60.419182,18.842453 59.634636,18.915081 58.331520,18.770826 
	C57.608372,18.285170 57.340176,18.119204 57.008366,18.056044 
z"/>
<path fill="#DA3B44" opacity="1.000000" stroke="none" 
	d="
M87.364395,40.202316 
	C86.784126,43.841713 86.200951,47.113831 85.376617,50.684856 
	C84.936172,48.332073 84.363869,45.644058 84.617775,43.036495 
	C85.098198,38.102634 83.312790,34.430702 79.639481,31.309444 
	C76.572548,28.703426 73.726067,25.837982 70.437500,23.042124 
	C70.093040,22.996820 70.049843,22.995785 70.054985,22.613941 
	C70.143066,21.737801 70.226006,21.243505 70.308945,20.749210 
	C78.801361,24.602089 84.619034,30.844765 87.364395,40.202316 
z"/>
<path fill="#D1829D" opacity="1.000000" stroke="none" 
	d="
M120.360352,39.745743 
	C120.360352,39.745743 120.262016,39.325897 120.148895,38.768166 
	C118.407433,35.650818 116.779083,33.091198 115.150742,30.531580 
	C117.956322,28.105631 120.761902,25.679686 123.914368,23.316866 
	C123.460289,28.528811 122.659325,33.677628 121.649796,39.307358 
	C121.080940,39.774094 120.720642,39.759918 120.360352,39.745743 
z"/>
<path fill="#47769E" opacity="1.000000" stroke="none" 
	d="
M114.819580,30.602818 
	C116.779083,33.091198 118.407433,35.650818 120.048096,38.577576 
	C117.418991,37.326805 114.777565,35.708893 111.977905,33.754845 
	C112.709244,32.503822 113.598831,31.588936 114.819580,30.602818 
z"/>
<path fill="#ECEAEC" opacity="1.000000" stroke="none" 
	d="
M58.994720,16.615025 
	C50.919857,17.101341 42.845070,17.387604 34.392136,17.869783 
	C33.844368,18.000212 33.674751,17.934719 33.252094,17.767368 
	C34.386486,17.110268 35.763401,16.108185 37.163124,16.075251 
	C44.122524,15.911493 51.087933,16.002954 58.518185,16.009762 
	C58.985146,16.014978 58.994801,16.414970 58.994720,16.615025 
z"/>
<path fill="#D60E55" opacity="1.000000" stroke="none" 
	d="
M70.285652,20.743904 
	C70.226006,21.243505 70.143066,21.737801 70.034996,22.607117 
	C67.455261,21.866055 64.900658,20.749969 62.173840,19.324787 
	C64.176544,19.256809 66.351456,19.497927 68.927521,20.120914 
	C69.328659,20.502783 69.740463,20.738409 69.740463,20.738409 
	C69.740463,20.738409 70.215034,20.732922 70.215034,20.732922 
	C70.215034,20.732922 70.262360,20.738600 70.285652,20.743904 
z"/>
<path fill="#F0EEEF" opacity="1.000000" stroke="none" 
	d="
M119.986465,21.489271 
	C119.604538,20.930779 119.510719,20.376461 119.416901,19.822145 
	C119.811546,19.827850 120.206184,19.833555 120.600830,19.839262 
	C120.492081,20.390657 120.383331,20.942053 119.986465,21.489271 
z"/>
<path fill="#DA3B44" opacity="1.000000" stroke="none" 
	d="
M70.103516,20.516405 
	C70.215034,20.732922 69.740463,20.738409 69.740463,20.738409 
	C69.740463,20.738409 69.328659,20.502783 69.203964,20.302586 
	C69.421501,19.992636 69.725746,20.058468 70.103516,20.516405 
z"/>
<path fill="#F0EEEF" opacity="1.000000" stroke="none" 
	d="
M127.538765,19.475773 
	C127.563644,19.520895 127.513885,19.430649 127.538765,19.475773 
z"/>
<path fill="#E7366F" opacity="1.000000" stroke="none" 
	d="
M142.955292,24.999514 
	C142.975021,24.830963 142.994766,24.662411 143.072342,24.245441 
	C143.658646,24.154654 144.187119,24.312284 144.885864,24.696125 
	C145.056122,24.922337 145.026764,24.964516 144.753708,24.991520 
	C144.309357,25.028748 144.138077,25.038971 143.714127,25.032848 
	C143.292709,25.010841 143.123993,25.005177 142.955292,24.999514 
z"/>
<path fill="#B0377C" opacity="1.000000" stroke="none" 
	d="
M142.612579,25.041153 
	C143.123993,25.005177 143.292709,25.010841 143.555786,25.338448 
	C142.880051,26.503510 142.043884,27.295938 141.351242,28.198488 
	C138.281540,32.198380 139.697983,38.825470 144.038849,40.929878 
	C144.038849,40.929878 144.030167,40.971703 144.042114,41.285660 
	C144.060486,41.812126 144.066925,42.024639 143.866852,42.452827 
	C143.106934,42.887863 142.553528,43.107224 142.000137,43.326584 
	C138.202408,45.478909 134.404694,47.631237 129.984467,49.932716 
	C128.920471,50.438232 128.479004,50.794598 128.037537,51.150963 
	C128.037537,51.150967 128.051895,51.055851 127.681381,51.043159 
	C120.819412,51.432339 123.870102,45.685490 122.146103,43.015335 
	C126.293182,34.164059 135.284927,30.749432 142.612579,25.041153 
z"/>
<path fill="#412556" opacity="1.000000" stroke="none" 
	d="
M122.078186,42.602600 
	C123.870102,45.685490 120.819412,51.432339 127.726807,51.058945 
	C127.469276,52.285439 126.795792,53.483452 125.461319,54.843967 
	C122.185287,56.320324 119.570251,57.634178 116.955215,58.948036 
	C118.017075,52.844910 119.078934,46.741783 120.250572,40.192200 
	C120.720642,39.759918 121.080940,39.774094 121.707642,39.725014 
	C121.986122,40.504459 121.998192,41.347160 122.078186,42.602600 
z"/>
<path fill="#E5376F" opacity="1.000000" stroke="none" 
	d="
M56.976883,29.049404 
	C66.826668,33.403992 64.741447,42.529797 65.265060,50.751991 
	C63.228687,44.885628 58.964199,41.871956 52.426857,40.737450 
	C51.689381,36.196766 51.353062,32.089291 51.035294,27.658571 
	C51.110332,26.906937 51.166817,26.478544 51.517685,26.045059 
	C52.206490,26.033585 52.600914,26.027197 52.995338,26.020811 
	C53.124699,26.329695 53.327492,26.578787 53.958317,27.163658 
	C55.200905,28.055952 56.088894,28.552677 56.976883,29.049404 
z"/>
<path fill="#B5357A" opacity="1.000000" stroke="none" 
	d="
M51.016743,27.981812 
	C51.353062,32.089291 51.689381,36.196766 52.046158,40.785217 
	C46.517960,41.443481 40.969311,41.620773 35.240097,41.089455 
	C37.058037,38.272823 39.056534,36.164810 41.041832,34.044563 
	C41.028633,34.032326 41.033775,34.035049 41.252956,33.926979 
	C41.745930,33.619961 41.933594,33.359058 42.036880,33.036819 
	C42.038635,33.037437 42.052681,33.050220 42.394943,33.000591 
	C45.497051,31.294580 48.256897,29.638197 51.016743,27.981812 
z"/>
<path fill="#F07895" opacity="1.000000" stroke="none" 
	d="
M66.853889,62.140656 
	C66.853889,62.140656 66.938705,62.557171 66.997192,62.761398 
	C66.979774,63.319061 66.903870,63.672493 66.738617,64.276245 
	C62.083637,64.946564 57.518002,65.366570 52.548046,65.775955 
	C52.068596,64.512421 51.993469,63.259495 51.920334,61.626263 
	C55.024925,60.519360 58.127522,59.792767 61.950909,59.045528 
	C64.065765,60.063473 65.459831,61.102066 66.853889,62.140656 
z"/>
<path fill="#8E1B67" opacity="1.000000" stroke="none" 
	d="
M41.055031,34.056797 
	C39.056534,36.164810 37.058037,38.272823 35.009682,40.722092 
	C33.556065,41.344997 32.152298,41.626652 30.379322,41.802521 
	C30.814312,36.988277 31.618511,32.279812 32.932755,27.499386 
	C33.618095,28.217072 33.998184,29.023071 33.936646,29.793808 
	C33.392342,36.610500 33.368107,36.605679 40.073952,34.166336 
	C40.374493,34.057014 40.726822,34.090061 41.055031,34.056797 
z"/>
<path fill="#E5376F" opacity="1.000000" stroke="none" 
	d="
M66.904999,61.706665 
	C65.459831,61.102066 64.065765,60.063473 62.331245,59.009651 
	C62.803146,57.138535 63.615509,55.282650 64.679550,53.205772 
	C65.606194,55.747414 66.281151,58.510048 66.904999,61.706665 
z"/>
<path fill="#2E3247" opacity="1.000000" stroke="none" 
	d="
M20.794655,76.169304 
	C22.017406,76.753296 22.998821,77.508400 23.989775,78.630074 
	C22.898746,78.687210 21.798180,78.377785 20.355171,78.027206 
	C20.192924,77.437508 20.373123,76.888962 20.794655,76.169304 
z"/>
<path fill="#85196D" opacity="1.000000" stroke="none" 
	d="
M41.041832,34.044563 
	C40.726822,34.090061 40.374493,34.057014 40.073952,34.166336 
	C33.368107,36.605679 33.392342,36.610500 33.936646,29.793808 
	C33.998184,29.023071 33.618095,28.217072 33.153664,27.171413 
	C32.881264,26.488226 32.897999,26.061047 33.434631,25.317795 
	C34.607895,25.000963 35.261261,24.999720 35.914631,24.999514 
	C45.392391,24.996525 45.392391,24.996559 42.052681,33.050220 
	C42.052681,33.050220 42.038635,33.037437 41.814613,33.141071 
	C41.313316,33.443562 41.127712,33.707012 41.033775,34.035049 
	C41.033775,34.035049 41.028633,34.032326 41.041832,34.044563 
z"/>
<path fill="#8E1B67" opacity="1.000000" stroke="none" 
	d="
M42.394943,33.000591 
	C45.392391,24.996559 45.392391,24.996525 35.914631,24.999514 
	C35.261261,24.999720 34.607895,25.000963 33.501785,25.003532 
	C33.143429,23.476435 33.237816,21.947531 33.618324,20.166023 
	C38.646168,21.277113 43.387890,22.640806 48.690498,24.273586 
	C49.908688,25.045164 50.565994,25.547657 51.223301,26.050150 
	C51.166817,26.478544 51.110332,26.906937 51.035294,27.658573 
	C48.256897,29.638197 45.497051,31.294580 42.394943,33.000591 
z"/>
<path fill="#2F2A42" opacity="1.000000" stroke="none" 
	d="
M116.660110,59.115318 
	C119.570251,57.634178 122.185287,56.320324 125.225067,55.028000 
	C122.544029,60.219315 120.351135,65.750420 120.153633,71.806664 
	C120.051514,74.937981 120.770241,78.096062 120.677681,81.588020 
	C119.162849,81.626167 118.088440,81.318344 117.014038,81.010529 
	C115.547211,78.118324 114.080391,75.226128 112.305634,72.166275 
	C112.284660,69.572083 112.571617,67.145523 112.865692,64.312538 
	C114.036873,62.364937 115.200935,60.823772 116.660110,59.115318 
z"/>
<path fill="#1B75A6" opacity="1.000000" stroke="none" 
	d="
M105.008270,70.018265 
	C106.007736,67.909943 107.007202,65.801620 108.031891,63.324699 
	C108.546455,63.241352 109.035805,63.526608 109.787323,63.924744 
	C108.873222,65.947754 107.696938,67.857887 105.992134,69.905670 
	C105.463615,70.043312 105.008270,70.018265 105.008270,70.018265 
z"/>
<path fill="#2F3E50" opacity="1.000000" stroke="none" 
	d="
M120.995461,92.997902 
	C120.993340,93.438843 120.991219,93.879784 120.742416,94.655441 
	C120.495750,94.990166 120.002441,94.996338 120.002441,94.996338 
	C117.259377,95.631111 114.516312,96.265884 111.385773,96.947304 
	C111.551689,95.342819 111.944946,93.614517 112.694878,92.058075 
	C113.910469,89.535164 115.360046,87.125000 117.138046,84.548920 
	C118.708672,87.286377 119.852066,90.142143 120.995461,92.997902 
z"/>
<path fill="#423F53" opacity="1.000000" stroke="none" 
	d="
M121.258987,92.796570 
	C119.852066,90.142143 118.708672,87.286377 117.290085,84.211639 
	C117.013962,83.247009 117.013039,82.501350 117.013077,81.383118 
	C118.088440,81.318344 119.162849,81.626167 120.574249,81.961884 
	C121.903549,83.768860 122.895851,85.547951 123.933395,87.666336 
	C123.159920,89.535507 122.341225,91.065376 121.258987,92.796570 
z"/>
<path fill="#1B75A6" opacity="1.000000" stroke="none" 
	d="
M104.200592,72.821594 
	C101.284042,72.863518 97.754959,78.068489 96.115723,71.360085 
	C98.842552,70.997925 101.537071,71.000450 104.622818,71.007111 
	C104.824600,71.558250 104.635170,72.105247 104.200592,72.821594 
z"/>
<path fill="#417D9D" opacity="1.000000" stroke="none" 
	d="
M105.012848,70.273071 
	C105.008270,70.018265 105.463615,70.043312 105.689285,70.068726 
	C105.849457,70.394798 105.695244,70.639557 105.256996,70.932037 
	C105.046928,70.866394 105.032173,70.697136 105.012848,70.273071 
z"/>
<path fill="#423F53" opacity="1.000000" stroke="none" 
	d="
M120.002754,95.329926 
	C120.002441,94.996338 120.495750,94.990166 120.742264,94.986160 
	C120.820152,95.536255 120.651527,96.090363 120.246132,96.821014 
	C120.007263,96.552872 120.005165,96.108192 120.002754,95.329926 
z"/>
<path fill="#F0EFEF" opacity="1.000000" stroke="none" 
	d="
M142.065338,43.653328 
	C142.553528,43.107224 143.106934,42.887863 144.231354,42.444633 
	C145.514999,42.089172 146.227585,41.957588 146.940186,41.826000 
	C147.109009,41.888874 147.277832,41.951752 147.693939,42.123352 
	C146.308167,43.824776 145.791779,49.129402 142.065338,43.653328 
z"/>
<path fill="#412556" opacity="1.000000" stroke="none" 
	d="
M128.336014,51.328712 
	C128.479004,50.794598 128.920471,50.438232 129.671082,50.078415 
	C129.531631,50.552132 129.083054,51.029293 128.336014,51.328712 
z"/>
<path fill="#544860" opacity="1.000000" stroke="none" 
	d="
M125.310905,97.961830 
	C125.200142,97.444290 125.371651,96.894806 125.788162,96.180168 
	C125.886505,96.653305 125.739838,97.291595 125.310905,97.961830 
z"/>
<path fill="#544860" opacity="1.000000" stroke="none" 
	d="
M126.003799,94.741486 
	C125.837830,94.811455 125.663437,94.667374 125.528755,94.492676 
	C125.503654,94.460129 125.638069,94.304611 125.860336,94.136749 
	C126.021805,94.067665 126.009087,94.516861 126.003799,94.741486 
z"/>
<path fill="#C13474" opacity="1.000000" stroke="none" 
	d="
M144.034790,40.473183 
	C139.697983,38.825470 138.281540,32.198380 141.351242,28.198488 
	C142.043884,27.295938 142.880051,26.503510 143.808472,25.354792 
	C144.138077,25.038971 144.309357,25.028748 144.737885,25.011772 
	C144.673645,30.008841 144.352188,35.012665 144.034790,40.473183 
z"/>
<path fill="#C13474" opacity="1.000000" stroke="none" 
	d="
M146.722229,41.602753 
	C146.227585,41.957588 145.514999,42.089172 144.437897,42.228958 
	C144.066925,42.024639 144.060486,41.812126 144.062820,41.280441 
	C144.882492,41.100681 145.693375,41.240093 146.722229,41.602753 
z"/>
<path fill="#D60E55" opacity="1.000000" stroke="none" 
	d="
M51.517685,26.045059 
	C50.565994,25.547657 49.908688,25.045164 49.095337,24.271332 
	C49.578480,21.759825 47.335125,17.954660 52.600857,18.020161 
	C53.005524,20.399824 53.003227,22.764723 52.998131,25.575214 
	C52.600914,26.027197 52.206490,26.033585 51.517685,26.045059 
z"/>
<path fill="#D60E55" opacity="1.000000" stroke="none" 
	d="
M56.927742,28.705715 
	C56.088894,28.552677 55.200905,28.055952 54.176208,27.272602 
	C54.985870,27.444662 55.932236,27.903345 56.927742,28.705715 
z"/>
<path fill="#D60E55" opacity="1.000000" stroke="none" 
	d="
M57.129917,18.262547 
	C57.340176,18.119204 57.608372,18.285170 57.934002,18.762953 
	C57.732018,18.892429 57.464161,18.724792 57.129917,18.262547 
z"/>
<path fill="#DA3B44" opacity="1.000000" stroke="none" 
	d="
M84.716476,53.317986 
	C84.565872,57.198727 84.112625,61.303947 83.415909,65.711014 
	C83.586235,61.856064 84.000031,57.699265 84.716476,53.317986 
z"/>
<path fill="#8E1B67" opacity="1.000000" stroke="none" 
	d="
M41.252956,33.926979 
	C41.127712,33.707012 41.313316,33.443562 41.812859,33.140453 
	C41.933594,33.359058 41.745930,33.619961 41.252956,33.926979 
z"/>
</svg>